<svg width="234" height="112" viewBox="0 0 234 112" fill="none" xmlns="http://www.w3.org/2000/svg">
<g filter="url(#filter0_dd)">
<rect x="25" y="23" width="184" height="62" rx="10" fill="#F7DEDE"/>
</g>
<path d="M94.8809 59.3379H88.46L87.2393 63H83.3452L89.9614 45.2266H93.355L100.008 63H96.1138L94.8809 59.3379ZM89.4487 56.3716H93.8921L91.6582 49.7188L89.4487 56.3716ZM113.338 56.5181C113.338 58.634 112.886 60.286 111.983 61.4741C111.08 62.6541 109.818 63.2441 108.199 63.2441C106.766 63.2441 105.623 62.6948 104.769 61.5962L104.61 63H101.436V44.25H104.964V50.9761C105.778 50.0239 106.848 49.5479 108.174 49.5479C109.786 49.5479 111.047 50.1419 111.958 51.3301C112.878 52.5101 113.338 54.1743 113.338 56.3228V56.5181ZM109.81 56.2617C109.81 54.9271 109.598 53.9546 109.175 53.3442C108.752 52.7257 108.121 52.4165 107.283 52.4165C106.16 52.4165 105.387 52.8763 104.964 53.7959V59.0083C105.395 59.936 106.176 60.3999 107.308 60.3999C108.447 60.3999 109.196 59.8384 109.554 58.7153C109.725 58.1782 109.81 57.3604 109.81 56.2617ZM114.974 56.2739C114.974 54.9637 115.226 53.7959 115.73 52.7705C116.235 51.7451 116.959 50.9517 117.903 50.3901C118.855 49.8286 119.958 49.5479 121.211 49.5479C122.994 49.5479 124.446 50.0931 125.569 51.1836C126.701 52.2741 127.331 53.7552 127.461 55.627L127.486 56.5303C127.486 58.5566 126.92 60.1842 125.789 61.4131C124.658 62.6338 123.14 63.2441 121.236 63.2441C119.332 63.2441 117.81 62.6338 116.67 61.4131C115.539 60.1924 114.974 58.5322 114.974 56.4326V56.2739ZM118.501 56.5303C118.501 57.7835 118.737 58.7438 119.209 59.4111C119.681 60.0703 120.357 60.3999 121.236 60.3999C122.09 60.3999 122.758 60.0744 123.238 59.4233C123.718 58.7642 123.958 57.7144 123.958 56.2739C123.958 55.0451 123.718 54.0929 123.238 53.4175C122.758 52.742 122.082 52.4043 121.211 52.4043C120.349 52.4043 119.681 52.742 119.209 53.4175C118.737 54.0848 118.501 55.1224 118.501 56.5303ZM137.569 61.6572C136.698 62.7152 135.494 63.2441 133.956 63.2441C132.54 63.2441 131.457 62.8372 130.708 62.0234C129.968 61.2096 129.59 60.0174 129.573 58.4468V49.792H133.101V58.3247C133.101 59.7 133.728 60.3877 134.981 60.3877C136.177 60.3877 136.999 59.9727 137.447 59.1426V49.792H140.987V63H137.667L137.569 61.6572ZM147.872 46.5449V49.792H150.13V52.3799H147.872V58.9717C147.872 59.46 147.965 59.8099 148.152 60.0215C148.34 60.2331 148.698 60.3389 149.227 60.3389C149.617 60.3389 149.963 60.3104 150.264 60.2534V62.9268C149.572 63.1383 148.86 63.2441 148.128 63.2441C145.654 63.2441 144.393 61.995 144.344 59.4966V52.3799H142.415V49.792H144.344V46.5449H147.872Z" fill="white"/>
<defs>
<filter id="filter0_dd" x="0" y="0" width="234" height="112" filterUnits="userSpaceOnUse" color-interpolation-filters="sRGB">
<feFlood flood-opacity="0" result="BackgroundImageFix"/>
<feColorMatrix in="SourceAlpha" type="matrix" values="0 0 0 0 0 0 0 0 0 0 0 0 0 0 0 0 0 0 127 0"/>
<feOffset dy="2"/>
<feGaussianBlur stdDeviation="2.5"/>
<feColorMatrix type="matrix" values="0 0 0 0 0 0 0 0 0 0 0 0 0 0 0 0 0 0 0.1 0"/>
<feBlend mode="normal" in2="BackgroundImageFix" result="effect1_dropShadow"/>
<feColorMatrix in="SourceAlpha" type="matrix" values="0 0 0 0 0 0 0 0 0 0 0 0 0 0 0 0 0 0 127 0"/>
<feOffset dy="2"/>
<feGaussianBlur stdDeviation="12.5"/>
<feColorMatrix type="matrix" values="0 0 0 0 0 0 0 0 0 0 0 0 0 0 0 0 0 0 0.04 0"/>
<feBlend mode="normal" in2="effect1_dropShadow" result="effect2_dropShadow"/>
<feBlend mode="normal" in="SourceGraphic" in2="effect2_dropShadow" result="shape"/>
</filter>
</defs>
</svg>
