<svg width="234" height="112" viewBox="0 0 234 112" fill="none" xmlns="http://www.w3.org/2000/svg">
<g filter="url(#filter0_dd)">
<rect x="25" y="23" width="184" height="62" rx="10" fill="white"/>
</g>
<path d="M96.0889 57.3613H88.6426L86.9702 62H84.5532L91.3403 44.2266H93.3911L100.19 62H97.7856L96.0889 57.3613ZM89.3506 55.4326H95.3931L92.3657 47.1196L89.3506 55.4326ZM113.411 55.5425C113.411 57.5607 112.947 59.1842 112.019 60.4131C111.091 61.6338 109.846 62.2441 108.284 62.2441C106.615 62.2441 105.326 61.6541 104.414 60.4741L104.304 62H102.229V43.25H104.487V50.2446C105.399 49.1134 106.656 48.5479 108.259 48.5479C109.862 48.5479 111.12 49.1541 112.031 50.3667C112.951 51.5793 113.411 53.2394 113.411 55.3472V55.5425ZM111.152 55.2861C111.152 53.748 110.855 52.5599 110.261 51.7217C109.667 50.8835 108.813 50.4644 107.698 50.4644C106.208 50.4644 105.138 51.1561 104.487 52.5396V58.2524C105.179 59.6359 106.257 60.3276 107.722 60.3276C108.805 60.3276 109.647 59.9085 110.249 59.0703C110.851 58.2321 111.152 56.9707 111.152 55.2861ZM115.669 55.2739C115.669 53.98 115.921 52.8162 116.426 51.7827C116.938 50.7492 117.646 49.9517 118.55 49.3901C119.461 48.8286 120.499 48.5479 121.663 48.5479C123.461 48.5479 124.914 49.1704 126.021 50.4155C127.135 51.6606 127.693 53.3167 127.693 55.3838V55.5425C127.693 56.8283 127.445 57.9839 126.948 59.0093C126.46 60.0265 125.756 60.82 124.836 61.3896C123.925 61.9593 122.875 62.2441 121.687 62.2441C119.897 62.2441 118.444 61.6216 117.329 60.3765C116.222 59.1313 115.669 57.4834 115.669 55.4326V55.2739ZM117.939 55.5425C117.939 57.0073 118.277 58.1833 118.953 59.0703C119.636 59.9574 120.548 60.4009 121.687 60.4009C122.834 60.4009 123.746 59.9533 124.421 59.0581C125.097 58.1548 125.435 56.8934 125.435 55.2739C125.435 53.8254 125.089 52.6535 124.397 51.7583C123.713 50.855 122.802 50.4033 121.663 50.4033C120.548 50.4033 119.648 50.8468 118.965 51.7339C118.281 52.6209 117.939 53.8905 117.939 55.5425ZM138.679 60.6938C137.8 61.7274 136.51 62.2441 134.81 62.2441C133.402 62.2441 132.327 61.8372 131.587 61.0234C130.854 60.2015 130.484 58.9889 130.476 57.3857V48.792H132.734V57.3247C132.734 59.3267 133.548 60.3276 135.176 60.3276C136.901 60.3276 138.049 59.6847 138.618 58.3989V48.792H140.876V62H138.728L138.679 60.6938ZM147.383 45.5938V48.792H149.849V50.5376H147.383V58.7285C147.383 59.2575 147.493 59.6562 147.712 59.9248C147.932 60.1852 148.306 60.3154 148.835 60.3154C149.096 60.3154 149.454 60.2666 149.91 60.1689V62C149.316 62.1628 148.738 62.2441 148.176 62.2441C147.167 62.2441 146.406 61.939 145.894 61.3286C145.381 60.7183 145.125 59.8516 145.125 58.7285V50.5376H142.72V48.792H145.125V45.5938H147.383Z" fill="black"/>
<defs>
<filter id="filter0_dd" x="0" y="0" width="234" height="112" filterUnits="userSpaceOnUse" color-interpolation-filters="sRGB">
<feFlood flood-opacity="0" result="BackgroundImageFix"/>
<feColorMatrix in="SourceAlpha" type="matrix" values="0 0 0 0 0 0 0 0 0 0 0 0 0 0 0 0 0 0 127 0"/>
<feOffset dy="2"/>
<feGaussianBlur stdDeviation="2.5"/>
<feColorMatrix type="matrix" values="0 0 0 0 0 0 0 0 0 0 0 0 0 0 0 0 0 0 0.1 0"/>
<feBlend mode="normal" in2="BackgroundImageFix" result="effect1_dropShadow"/>
<feColorMatrix in="SourceAlpha" type="matrix" values="0 0 0 0 0 0 0 0 0 0 0 0 0 0 0 0 0 0 127 0"/>
<feOffset dy="2"/>
<feGaussianBlur stdDeviation="12.5"/>
<feColorMatrix type="matrix" values="0 0 0 0 0 0 0 0 0 0 0 0 0 0 0 0 0 0 0.04 0"/>
<feBlend mode="normal" in2="effect1_dropShadow" result="effect2_dropShadow"/>
<feBlend mode="normal" in="SourceGraphic" in2="effect2_dropShadow" result="shape"/>
</filter>
</defs>
</svg>
