<svg width="1248" height="61" viewBox="0 0 1248 61" fill="none" xmlns="http://www.w3.org/2000/svg">
<path d="M10.8032 18.3369C10.8032 17.6452 10.5591 17.1162 10.0708 16.75C9.58252 16.3757 8.70361 15.985 7.43408 15.5781C6.16455 15.1631 5.15951 14.7562 4.41895 14.3574C2.40072 13.2669 1.3916 11.798 1.3916 9.95068C1.3916 8.9904 1.66016 8.1359 2.19727 7.38721C2.74251 6.63037 3.51969 6.04036 4.52881 5.61719C5.54606 5.19401 6.68538 4.98242 7.94678 4.98242C9.21631 4.98242 10.3475 5.21436 11.3403 5.67822C12.3332 6.13395 13.1022 6.78092 13.6475 7.61914C14.2008 8.45736 14.4775 9.40951 14.4775 10.4756H10.8154C10.8154 9.66178 10.5591 9.03109 10.0464 8.5835C9.53369 8.12777 8.81348 7.8999 7.88574 7.8999C6.99056 7.8999 6.29476 8.09115 5.79834 8.47363C5.30192 8.84798 5.05371 9.3444 5.05371 9.96289C5.05371 10.5407 5.34261 11.0249 5.92041 11.4155C6.50635 11.8062 7.36491 12.1724 8.49609 12.5142C10.5794 13.1408 12.0972 13.918 13.0493 14.8457C14.0015 15.7734 14.4775 16.929 14.4775 18.3125C14.4775 19.8506 13.8957 21.0591 12.7319 21.938C11.5682 22.8088 10.0016 23.2441 8.03223 23.2441C6.66504 23.2441 5.41992 22.9959 4.29688 22.4995C3.17383 21.995 2.31527 21.3073 1.72119 20.4365C1.13525 19.5658 0.842285 18.5566 0.842285 17.4092H4.5166C4.5166 19.3704 5.68848 20.3511 8.03223 20.3511C8.90299 20.3511 9.58252 20.1761 10.0708 19.8262C10.5591 19.4681 10.8032 18.9717 10.8032 18.3369ZM22.229 20.3999C22.88 20.3999 23.409 20.2209 23.8159 19.8628C24.2228 19.5047 24.4344 19.0286 24.4507 18.4346H27.7588C27.7507 19.3298 27.5065 20.1517 27.0264 20.9004C26.5462 21.641 25.887 22.2188 25.0488 22.6338C24.2188 23.0407 23.2992 23.2441 22.29 23.2441C20.402 23.2441 18.9128 22.646 17.8223 21.4497C16.7318 20.2453 16.1865 18.5851 16.1865 16.4692V16.2373C16.1865 14.2028 16.7277 12.5793 17.8101 11.3667C18.8924 10.1541 20.3776 9.54785 22.2656 9.54785C23.9176 9.54785 25.2401 10.0199 26.2329 10.9639C27.2339 11.8997 27.7425 13.1489 27.7588 14.7114H24.4507C24.4344 14.0278 24.2228 13.4744 23.8159 13.0513C23.409 12.62 22.8719 12.4043 22.2046 12.4043C21.3826 12.4043 20.7601 12.7054 20.3369 13.3076C19.9219 13.9017 19.7144 14.8701 19.7144 16.2129V16.5791C19.7144 17.9382 19.9219 18.9147 20.3369 19.5088C20.752 20.1029 21.3826 20.3999 22.229 20.3999ZM33.4961 23H29.9561V9.79199H33.4961V23ZM29.7485 6.37402C29.7485 5.84505 29.9235 5.40967 30.2734 5.06787C30.6315 4.72607 31.1157 4.55518 31.7261 4.55518C32.3283 4.55518 32.8084 4.72607 33.1665 5.06787C33.5246 5.40967 33.7036 5.84505 33.7036 6.37402C33.7036 6.91113 33.5205 7.35059 33.1543 7.69238C32.7962 8.03418 32.3201 8.20508 31.7261 8.20508C31.132 8.20508 30.6519 8.03418 30.2856 7.69238C29.9276 7.35059 29.7485 6.91113 29.7485 6.37402ZM42.4927 23.2441C40.5558 23.2441 38.9771 22.6501 37.7563 21.4619C36.5438 20.2738 35.9375 18.6909 35.9375 16.7134V16.3716C35.9375 15.0451 36.1938 13.861 36.7065 12.8193C37.2192 11.7695 37.9435 10.9639 38.8794 10.4023C39.8234 9.83268 40.8976 9.54785 42.1021 9.54785C43.9087 9.54785 45.3288 10.1175 46.3623 11.2568C47.404 12.3962 47.9248 14.0116 47.9248 16.103V17.5435H39.5142C39.6281 18.4061 39.9699 19.0978 40.5396 19.6187C41.1174 20.1395 41.8457 20.3999 42.7246 20.3999C44.0837 20.3999 45.1457 19.9076 45.9106 18.9229L47.644 20.8638C47.1151 21.6125 46.3989 22.1984 45.4956 22.6216C44.5923 23.0366 43.5913 23.2441 42.4927 23.2441ZM42.0898 12.4043C41.39 12.4043 40.8203 12.6403 40.3809 13.1123C39.9495 13.5843 39.6729 14.2598 39.5508 15.1387H44.458V14.8579C44.4417 14.0767 44.2301 13.4744 43.8232 13.0513C43.4163 12.62 42.8385 12.4043 42.0898 12.4043ZM53.186 9.79199L53.2959 11.3179C54.2399 10.1379 55.5054 9.54785 57.0923 9.54785C58.492 9.54785 59.5337 9.95882 60.2173 10.7808C60.9009 11.6027 61.2508 12.8315 61.2671 14.4673V23H57.7393V14.5527C57.7393 13.804 57.5765 13.2629 57.251 12.9292C56.9255 12.5874 56.3843 12.4165 55.6274 12.4165C54.6346 12.4165 53.89 12.8397 53.3936 13.686V23H49.8657V9.79199H53.186ZM69.4458 20.3999C70.0968 20.3999 70.6258 20.2209 71.0327 19.8628C71.4396 19.5047 71.6512 19.0286 71.6675 18.4346H74.9756C74.9674 19.3298 74.7233 20.1517 74.2432 20.9004C73.763 21.641 73.1038 22.2188 72.2656 22.6338C71.4355 23.0407 70.516 23.2441 69.5068 23.2441C67.6188 23.2441 66.1296 22.646 65.0391 21.4497C63.9486 20.2453 63.4033 18.5851 63.4033 16.4692V16.2373C63.4033 14.2028 63.9445 12.5793 65.0269 11.3667C66.1092 10.1541 67.5944 9.54785 69.4824 9.54785C71.1344 9.54785 72.4569 10.0199 73.4497 10.9639C74.4507 11.8997 74.9593 13.1489 74.9756 14.7114H71.6675C71.6512 14.0278 71.4396 13.4744 71.0327 13.0513C70.6258 12.62 70.0887 12.4043 69.4214 12.4043C68.5994 12.4043 67.9769 12.7054 67.5537 13.3076C67.1387 13.9017 66.9312 14.8701 66.9312 16.2129V16.5791C66.9312 17.9382 67.1387 18.9147 67.5537 19.5088C67.9688 20.1029 68.5994 20.3999 69.4458 20.3999ZM83.0688 23.2441C81.132 23.2441 79.5532 22.6501 78.3325 21.4619C77.12 20.2738 76.5137 18.6909 76.5137 16.7134V16.3716C76.5137 15.0451 76.77 13.861 77.2827 12.8193C77.7954 11.7695 78.5197 10.9639 79.4556 10.4023C80.3996 9.83268 81.4738 9.54785 82.6782 9.54785C84.4849 9.54785 85.9049 10.1175 86.9385 11.2568C87.9801 12.3962 88.501 14.0116 88.501 16.103V17.5435H80.0903C80.2043 18.4061 80.5461 19.0978 81.1157 19.6187C81.6935 20.1395 82.4219 20.3999 83.3008 20.3999C84.6598 20.3999 85.7218 19.9076 86.4868 18.9229L88.2202 20.8638C87.6912 21.6125 86.9751 22.1984 86.0718 22.6216C85.1685 23.0366 84.1675 23.2441 83.0688 23.2441ZM82.666 12.4043C81.9661 12.4043 81.3965 12.6403 80.957 13.1123C80.5257 13.5843 80.249 14.2598 80.127 15.1387H85.0342V14.8579C85.0179 14.0767 84.8063 13.4744 84.3994 13.0513C83.9925 12.62 83.4147 12.4043 82.666 12.4043ZM101.758 5.22656L106.323 18.1172L110.864 5.22656H115.674V23H112V18.1416L112.366 9.75537L107.568 23H105.054L100.269 9.76758L100.635 18.1416V23H96.9727V5.22656H101.758ZM126.294 23C126.131 22.6826 126.013 22.2879 125.94 21.8159C125.085 22.7681 123.975 23.2441 122.607 23.2441C121.313 23.2441 120.239 22.8698 119.385 22.1211C118.538 21.3724 118.115 20.4284 118.115 19.2891C118.115 17.8893 118.632 16.8151 119.666 16.0664C120.707 15.3177 122.209 14.9393 124.17 14.9312H125.793V14.1743C125.793 13.564 125.635 13.0757 125.317 12.7095C125.008 12.3433 124.516 12.1602 123.84 12.1602C123.246 12.1602 122.778 12.3026 122.437 12.5874C122.103 12.8722 121.936 13.2629 121.936 13.7593H118.408C118.408 12.9943 118.644 12.2863 119.116 11.6353C119.588 10.9842 120.256 10.4756 121.118 10.1094C121.981 9.73503 122.949 9.54785 124.023 9.54785C125.651 9.54785 126.941 9.95882 127.893 10.7808C128.853 11.5946 129.333 12.742 129.333 14.2231V19.9482C129.342 21.2015 129.517 22.1496 129.858 22.7925V23H126.294ZM123.376 20.5464C123.897 20.5464 124.377 20.4325 124.817 20.2046C125.256 19.9686 125.582 19.6553 125.793 19.2646V16.9941H124.475C122.709 16.9941 121.769 17.6045 121.655 18.8252L121.643 19.0327C121.643 19.4722 121.798 19.8343 122.107 20.1191C122.416 20.404 122.839 20.5464 123.376 20.5464ZM135.779 9.79199V23.7202C135.779 25.1769 135.392 26.3081 134.619 27.1138C133.846 27.9276 132.731 28.3345 131.274 28.3345C130.664 28.3345 130.082 28.2653 129.529 28.127V25.3315C129.952 25.4048 130.322 25.4414 130.64 25.4414C131.706 25.4414 132.239 24.8758 132.239 23.7446V9.79199H135.779ZM131.958 6.37402C131.958 5.84505 132.133 5.40967 132.483 5.06787C132.841 4.72607 133.325 4.55518 133.936 4.55518C134.546 4.55518 135.026 4.72607 135.376 5.06787C135.734 5.40967 135.913 5.84505 135.913 6.37402C135.913 6.91113 135.73 7.35059 135.364 7.69238C135.006 8.03418 134.53 8.20508 133.936 8.20508C133.341 8.20508 132.861 8.03418 132.495 7.69238C132.137 7.35059 131.958 6.91113 131.958 6.37402ZM137.988 16.2739C137.988 14.9637 138.241 13.7959 138.745 12.7705C139.25 11.7451 139.974 10.9517 140.918 10.3901C141.87 9.82861 142.973 9.54785 144.226 9.54785C146.008 9.54785 147.461 10.0931 148.584 11.1836C149.715 12.2741 150.346 13.7552 150.476 15.627L150.5 16.5303C150.5 18.5566 149.935 20.1842 148.804 21.4131C147.673 22.6338 146.155 23.2441 144.25 23.2441C142.346 23.2441 140.824 22.6338 139.685 21.4131C138.554 20.1924 137.988 18.5322 137.988 16.4326V16.2739ZM141.516 16.5303C141.516 17.7835 141.752 18.7438 142.224 19.4111C142.696 20.0703 143.372 20.3999 144.25 20.3999C145.105 20.3999 145.772 20.0744 146.252 19.4233C146.733 18.7642 146.973 17.7144 146.973 16.2739C146.973 15.0451 146.733 14.0929 146.252 13.4175C145.772 12.742 145.097 12.4043 144.226 12.4043C143.363 12.4043 142.696 12.742 142.224 13.4175C141.752 14.0848 141.516 15.1224 141.516 16.5303ZM160.095 13.1001C159.615 13.035 159.192 13.0024 158.826 13.0024C157.491 13.0024 156.616 13.4541 156.201 14.3574V23H152.673V9.79199H156.006L156.104 11.3667C156.812 10.1541 157.792 9.54785 159.045 9.54785C159.436 9.54785 159.802 9.60075 160.144 9.70654L160.095 13.1001ZM168.958 19.3501C168.958 18.9188 168.742 18.5811 168.311 18.3369C167.887 18.0846 167.204 17.8608 166.26 17.6655C163.118 17.0063 161.548 15.6717 161.548 13.6616C161.548 12.4897 162.032 11.5132 163 10.7319C163.977 9.94255 165.251 9.54785 166.821 9.54785C168.498 9.54785 169.836 9.94255 170.837 10.7319C171.847 11.5213 172.351 12.5467 172.351 13.8081H168.823C168.823 13.3035 168.66 12.8885 168.335 12.563C168.009 12.2293 167.501 12.0625 166.809 12.0625C166.215 12.0625 165.755 12.1968 165.43 12.4653C165.104 12.7339 164.941 13.0757 164.941 13.4907C164.941 13.8813 165.125 14.1987 165.491 14.4429C165.865 14.6789 166.492 14.8864 167.371 15.0654C168.25 15.2363 168.99 15.4316 169.592 15.6514C171.456 16.335 172.388 17.519 172.388 19.2036C172.388 20.408 171.871 21.3846 170.837 22.1333C169.804 22.8739 168.469 23.2441 166.833 23.2441C165.727 23.2441 164.742 23.0488 163.879 22.6582C163.025 22.2594 162.354 21.7183 161.865 21.0347C161.377 20.3429 161.133 19.5983 161.133 18.8008H164.478C164.51 19.4274 164.742 19.9076 165.173 20.2412C165.605 20.5749 166.182 20.7417 166.907 20.7417C167.582 20.7417 168.091 20.6156 168.433 20.3633C168.783 20.1029 168.958 19.7651 168.958 19.3501Z" fill="black"/>
<path d="M1141.04 25.5527L1143 18.4336H1145.95L1142.39 29H1139.69L1136.13 18.4336H1139.08L1141.04 25.5527ZM1150.18 29H1147.35V18.4336H1150.18V29ZM1147.18 15.6992C1147.18 15.276 1147.32 14.9277 1147.6 14.6543C1147.89 14.3809 1148.28 14.2441 1148.76 14.2441C1149.25 14.2441 1149.63 14.3809 1149.92 14.6543C1150.2 14.9277 1150.35 15.276 1150.35 15.6992C1150.35 16.1289 1150.2 16.4805 1149.91 16.7539C1149.62 17.0273 1149.24 17.1641 1148.76 17.1641C1148.29 17.1641 1147.9 17.0273 1147.61 16.7539C1147.32 16.4805 1147.18 16.1289 1147.18 15.6992ZM1157.38 29.1953C1155.83 29.1953 1154.56 28.7201 1153.59 27.7695C1152.62 26.819 1152.13 25.5527 1152.13 23.9707V23.6973C1152.13 22.6361 1152.34 21.6888 1152.75 20.8555C1153.16 20.0156 1153.74 19.3711 1154.49 18.9219C1155.24 18.4661 1156.1 18.2383 1157.06 18.2383C1158.51 18.2383 1159.65 18.694 1160.47 19.6055C1161.31 20.5169 1161.72 21.8092 1161.72 23.4824V24.6348H1154.99C1155.09 25.3249 1155.36 25.8783 1155.81 26.2949C1156.28 26.7116 1156.86 26.9199 1157.56 26.9199C1158.65 26.9199 1159.5 26.526 1160.11 25.7383L1161.5 27.291C1161.07 27.89 1160.5 28.3587 1159.78 28.6973C1159.06 29.0293 1158.26 29.1953 1157.38 29.1953ZM1157.05 20.5234C1156.49 20.5234 1156.04 20.7122 1155.69 21.0898C1155.34 21.4674 1155.12 22.0078 1155.02 22.7109H1158.95V22.4863C1158.94 21.8613 1158.77 21.3796 1158.44 21.041C1158.12 20.696 1157.65 20.5234 1157.05 20.5234ZM1172.52 25.1621L1173.91 18.4336H1176.63L1173.94 29H1171.58L1169.57 22.3496L1167.57 29H1165.22L1162.52 18.4336H1165.25L1166.62 25.1523L1168.56 18.4336H1170.6L1172.52 25.1621ZM1185.67 18.4336L1185.76 19.6152C1186.5 18.6973 1187.52 18.2383 1188.79 18.2383C1190.15 18.2383 1191.09 18.7754 1191.6 19.8496C1192.34 18.7754 1193.4 18.2383 1194.77 18.2383C1195.92 18.2383 1196.77 18.5736 1197.33 19.2441C1197.89 19.9082 1198.17 20.9108 1198.17 22.252V29H1195.34V22.2617C1195.34 21.6628 1195.22 21.2266 1194.98 20.9531C1194.75 20.6732 1194.34 20.5332 1193.74 20.5332C1192.9 20.5332 1192.31 20.9368 1191.99 21.7441L1192 29H1189.17V22.2715C1189.17 21.6595 1189.05 21.2168 1188.81 20.9434C1188.57 20.6699 1188.16 20.5332 1187.58 20.5332C1186.78 20.5332 1186.2 20.8652 1185.84 21.5293V29H1183.02V18.4336H1185.67ZM1199.91 23.6191C1199.91 22.571 1200.11 21.6367 1200.51 20.8164C1200.92 19.9961 1201.49 19.3613 1202.25 18.9121C1203.01 18.4629 1203.89 18.2383 1204.9 18.2383C1206.32 18.2383 1207.48 18.6745 1208.38 19.5469C1209.29 20.4193 1209.79 21.6042 1209.9 23.1016L1209.92 23.8242C1209.92 25.4453 1209.46 26.7474 1208.56 27.7305C1207.65 28.707 1206.44 29.1953 1204.92 29.1953C1203.39 29.1953 1202.18 28.707 1201.26 27.7305C1200.36 26.7539 1199.91 25.4258 1199.91 23.7461V23.6191ZM1202.73 23.8242C1202.73 24.8268 1202.92 25.5951 1203.29 26.1289C1203.67 26.6562 1204.21 26.9199 1204.92 26.9199C1205.6 26.9199 1206.13 26.6595 1206.52 26.1387C1206.9 25.6113 1207.09 24.7715 1207.09 23.6191C1207.09 22.6361 1206.9 21.8743 1206.52 21.334C1206.13 20.7936 1205.59 20.5234 1204.9 20.5234C1204.21 20.5234 1203.67 20.7936 1203.29 21.334C1202.92 21.8678 1202.73 22.6979 1202.73 23.8242ZM1217.59 21.0801C1217.21 21.028 1216.87 21.002 1216.58 21.002C1215.51 21.002 1214.81 21.3633 1214.48 22.0859V29H1211.65V18.4336H1214.32L1214.4 19.6934C1214.96 18.7233 1215.75 18.2383 1216.75 18.2383C1217.06 18.2383 1217.36 18.2806 1217.63 18.3652L1217.59 21.0801ZM1223.63 29.1953C1222.08 29.1953 1220.81 28.7201 1219.84 27.7695C1218.87 26.819 1218.38 25.5527 1218.38 23.9707V23.6973C1218.38 22.6361 1218.59 21.6888 1219 20.8555C1219.41 20.0156 1219.99 19.3711 1220.74 18.9219C1221.49 18.4661 1222.35 18.2383 1223.31 18.2383C1224.76 18.2383 1225.9 18.694 1226.72 19.6055C1227.56 20.5169 1227.97 21.8092 1227.97 23.4824V24.6348H1221.24C1221.34 25.3249 1221.61 25.8783 1222.06 26.2949C1222.53 26.7116 1223.11 26.9199 1223.81 26.9199C1224.9 26.9199 1225.75 26.526 1226.36 25.7383L1227.75 27.291C1227.32 27.89 1226.75 28.3587 1226.03 28.6973C1225.31 29.0293 1224.51 29.1953 1223.63 29.1953ZM1223.3 20.5234C1222.74 20.5234 1222.29 20.7122 1221.94 21.0898C1221.59 21.4674 1221.37 22.0078 1221.27 22.7109H1225.2V22.4863C1225.19 21.8613 1225.02 21.3796 1224.69 21.041C1224.37 20.696 1223.9 20.5234 1223.3 20.5234ZM1240.33 22.9355L1234.65 20.9531V18.2383L1243.16 21.8027V24.0977L1234.65 27.6719V24.9473L1240.33 22.9355Z" fill="black"/>
</svg>
