<svg width="1248" height="61" viewBox="0 0 1248 61" fill="none" xmlns="http://www.w3.org/2000/svg">
<path d="M1.58691 23V5.22656H7.8125C9.96908 5.22656 11.6048 5.6416 12.7197 6.47168C13.8346 7.29362 14.3921 8.50212 14.3921 10.0972C14.3921 10.9679 14.1683 11.737 13.7207 12.4043C13.2731 13.0635 12.6506 13.5477 11.853 13.8569C12.7645 14.0848 13.4806 14.5446 14.0015 15.2363C14.5304 15.9281 14.7949 16.7744 14.7949 17.7754C14.7949 19.4844 14.2497 20.7783 13.1592 21.6572C12.0687 22.5361 10.5143 22.9837 8.49609 23H1.58691ZM5.24902 15.2607V20.0581H8.38623C9.24886 20.0581 9.92025 19.8547 10.4004 19.4478C10.8887 19.0327 11.1328 18.4631 11.1328 17.7388C11.1328 16.1112 10.2905 15.2852 8.60596 15.2607H5.24902ZM5.24902 12.6729H7.95898C9.80632 12.6403 10.73 11.9038 10.73 10.4634C10.73 9.65771 10.494 9.07992 10.022 8.72998C9.55811 8.37191 8.82161 8.19287 7.8125 8.19287H5.24902V12.6729ZM25.2319 21.6572C24.3612 22.7152 23.1567 23.2441 21.6187 23.2441C20.2026 23.2441 19.1203 22.8372 18.3716 22.0234C17.631 21.2096 17.2526 20.0174 17.2363 18.4468V9.79199H20.7642V18.3247C20.7642 19.7 21.3908 20.3877 22.644 20.3877C23.8403 20.3877 24.6623 19.9727 25.1099 19.1426V9.79199H28.6499V23H25.3296L25.2319 21.6572ZM38.4644 19.3501C38.4644 18.9188 38.2487 18.5811 37.8174 18.3369C37.3942 18.0846 36.7106 17.8608 35.7666 17.6655C32.6253 17.0063 31.0547 15.6717 31.0547 13.6616C31.0547 12.4897 31.5389 11.5132 32.5073 10.7319C33.4839 9.94255 34.7575 9.54785 36.3281 9.54785C38.0046 9.54785 39.3433 9.94255 40.3442 10.7319C41.3534 11.5213 41.8579 12.5467 41.8579 13.8081H38.3301C38.3301 13.3035 38.1673 12.8885 37.8418 12.563C37.5163 12.2293 37.0076 12.0625 36.3159 12.0625C35.7218 12.0625 35.262 12.1968 34.9365 12.4653C34.611 12.7339 34.4482 13.0757 34.4482 13.4907C34.4482 13.8813 34.6313 14.1987 34.9976 14.4429C35.3719 14.6789 35.9985 14.8864 36.8774 15.0654C37.7563 15.2363 38.4969 15.4316 39.0991 15.6514C40.9627 16.335 41.8945 17.519 41.8945 19.2036C41.8945 20.408 41.3778 21.3846 40.3442 22.1333C39.3107 22.8739 37.9761 23.2441 36.3403 23.2441C35.2336 23.2441 34.2489 23.0488 33.3862 22.6582C32.5317 22.2594 31.8604 21.7183 31.3721 21.0347C30.8838 20.3429 30.6396 19.5983 30.6396 18.8008H33.9844C34.0169 19.4274 34.2489 19.9076 34.6802 20.2412C35.1115 20.5749 35.6893 20.7417 36.4136 20.7417C37.089 20.7417 37.5977 20.6156 37.9395 20.3633C38.2894 20.1029 38.4644 19.7651 38.4644 19.3501ZM47.9004 23H44.3604V9.79199H47.9004V23ZM44.1528 6.37402C44.1528 5.84505 44.3278 5.40967 44.6777 5.06787C45.0358 4.72607 45.52 4.55518 46.1304 4.55518C46.7326 4.55518 47.2127 4.72607 47.5708 5.06787C47.9289 5.40967 48.1079 5.84505 48.1079 6.37402C48.1079 6.91113 47.9248 7.35059 47.5586 7.69238C47.2005 8.03418 46.7244 8.20508 46.1304 8.20508C45.5363 8.20508 45.0562 8.03418 44.6899 7.69238C44.3319 7.35059 44.1528 6.91113 44.1528 6.37402ZM54.0649 9.79199L54.1748 11.3179C55.1188 10.1379 56.3843 9.54785 57.9712 9.54785C59.3709 9.54785 60.4126 9.95882 61.0962 10.7808C61.7798 11.6027 62.1297 12.8315 62.146 14.4673V23H58.6182V14.5527C58.6182 13.804 58.4554 13.2629 58.1299 12.9292C57.8044 12.5874 57.2632 12.4165 56.5063 12.4165C55.5135 12.4165 54.7689 12.8397 54.2725 13.686V23H50.7446V9.79199H54.0649ZM70.9106 23.2441C68.9738 23.2441 67.395 22.6501 66.1743 21.4619C64.9618 20.2738 64.3555 18.6909 64.3555 16.7134V16.3716C64.3555 15.0451 64.6118 13.861 65.1245 12.8193C65.6372 11.7695 66.3615 10.9639 67.2974 10.4023C68.2414 9.83268 69.3156 9.54785 70.52 9.54785C72.3267 9.54785 73.7467 10.1175 74.7803 11.2568C75.8219 12.3962 76.3428 14.0116 76.3428 16.103V17.5435H67.9321C68.0461 18.4061 68.3879 19.0978 68.9575 19.6187C69.5353 20.1395 70.2637 20.3999 71.1426 20.3999C72.5016 20.3999 73.5636 19.9076 74.3286 18.9229L76.062 20.8638C75.533 21.6125 74.8169 22.1984 73.9136 22.6216C73.0103 23.0366 72.0093 23.2441 70.9106 23.2441ZM70.5078 12.4043C69.8079 12.4043 69.2383 12.6403 68.7988 13.1123C68.3675 13.5843 68.0908 14.2598 67.9688 15.1387H72.876V14.8579C72.8597 14.0767 72.6481 13.4744 72.2412 13.0513C71.8343 12.62 71.2565 12.4043 70.5078 12.4043ZM85.5103 19.3501C85.5103 18.9188 85.2946 18.5811 84.8633 18.3369C84.4401 18.0846 83.7565 17.8608 82.8125 17.6655C79.6712 17.0063 78.1006 15.6717 78.1006 13.6616C78.1006 12.4897 78.5848 11.5132 79.5532 10.7319C80.5298 9.94255 81.8034 9.54785 83.374 9.54785C85.0505 9.54785 86.3892 9.94255 87.3901 10.7319C88.3993 11.5213 88.9038 12.5467 88.9038 13.8081H85.376C85.376 13.3035 85.2132 12.8885 84.8877 12.563C84.5622 12.2293 84.0535 12.0625 83.3618 12.0625C82.7677 12.0625 82.3079 12.1968 81.9824 12.4653C81.6569 12.7339 81.4941 13.0757 81.4941 13.4907C81.4941 13.8813 81.6772 14.1987 82.0435 14.4429C82.4178 14.6789 83.0444 14.8864 83.9233 15.0654C84.8022 15.2363 85.5428 15.4316 86.145 15.6514C88.0086 16.335 88.9404 17.519 88.9404 19.2036C88.9404 20.408 88.4237 21.3846 87.3901 22.1333C86.3566 22.8739 85.022 23.2441 83.3862 23.2441C82.2795 23.2441 81.2948 23.0488 80.4321 22.6582C79.5776 22.2594 78.9062 21.7183 78.418 21.0347C77.9297 20.3429 77.6855 19.5983 77.6855 18.8008H81.0303C81.0628 19.4274 81.2948 19.9076 81.7261 20.2412C82.1574 20.5749 82.7352 20.7417 83.4595 20.7417C84.1349 20.7417 84.6436 20.6156 84.9854 20.3633C85.3353 20.1029 85.5103 19.7651 85.5103 19.3501ZM98.3765 19.3501C98.3765 18.9188 98.1608 18.5811 97.7295 18.3369C97.3063 18.0846 96.6227 17.8608 95.6787 17.6655C92.5374 17.0063 90.9668 15.6717 90.9668 13.6616C90.9668 12.4897 91.451 11.5132 92.4194 10.7319C93.396 9.94255 94.6696 9.54785 96.2402 9.54785C97.9167 9.54785 99.2554 9.94255 100.256 10.7319C101.265 11.5213 101.77 12.5467 101.77 13.8081H98.2422C98.2422 13.3035 98.0794 12.8885 97.7539 12.563C97.4284 12.2293 96.9198 12.0625 96.228 12.0625C95.634 12.0625 95.1742 12.1968 94.8486 12.4653C94.5231 12.7339 94.3604 13.0757 94.3604 13.4907C94.3604 13.8813 94.5435 14.1987 94.9097 14.4429C95.284 14.6789 95.9106 14.8864 96.7896 15.0654C97.6685 15.2363 98.409 15.4316 99.0112 15.6514C100.875 16.335 101.807 17.519 101.807 19.2036C101.807 20.408 101.29 21.3846 100.256 22.1333C99.2228 22.8739 97.8882 23.2441 96.2524 23.2441C95.1457 23.2441 94.161 23.0488 93.2983 22.6582C92.4438 22.2594 91.7725 21.7183 91.2842 21.0347C90.7959 20.3429 90.5518 19.5983 90.5518 18.8008H93.8965C93.929 19.4274 94.161 19.9076 94.5923 20.2412C95.0236 20.5749 95.6014 20.7417 96.3257 20.7417C97.0011 20.7417 97.5098 20.6156 97.8516 20.3633C98.2015 20.1029 98.3765 19.7651 98.3765 19.3501ZM115.332 5.22656L119.897 18.1172L124.438 5.22656H129.248V23H125.574V18.1416L125.94 9.75537L121.143 23H118.628L113.843 9.76758L114.209 18.1416V23H110.547V5.22656H115.332ZM139.868 23C139.705 22.6826 139.587 22.2879 139.514 21.8159C138.66 22.7681 137.549 23.2441 136.182 23.2441C134.888 23.2441 133.813 22.8698 132.959 22.1211C132.113 21.3724 131.689 20.4284 131.689 19.2891C131.689 17.8893 132.206 16.8151 133.24 16.0664C134.281 15.3177 135.783 14.9393 137.744 14.9312H139.368V14.1743C139.368 13.564 139.209 13.0757 138.892 12.7095C138.582 12.3433 138.09 12.1602 137.415 12.1602C136.82 12.1602 136.353 12.3026 136.011 12.5874C135.677 12.8722 135.51 13.2629 135.51 13.7593H131.982C131.982 12.9943 132.218 12.2863 132.69 11.6353C133.162 10.9842 133.83 10.4756 134.692 10.1094C135.555 9.73503 136.523 9.54785 137.598 9.54785C139.225 9.54785 140.515 9.95882 141.467 10.7808C142.428 11.5946 142.908 12.742 142.908 14.2231V19.9482C142.916 21.2015 143.091 22.1496 143.433 22.7925V23H139.868ZM136.951 20.5464C137.472 20.5464 137.952 20.4325 138.391 20.2046C138.831 19.9686 139.156 19.6553 139.368 19.2646V16.9941H138.049C136.283 16.9941 135.343 17.6045 135.229 18.8252L135.217 19.0327C135.217 19.4722 135.372 19.8343 135.681 20.1191C135.99 20.404 136.414 20.5464 136.951 20.5464ZM149.353 9.79199V23.7202C149.353 25.1769 148.966 26.3081 148.193 27.1138C147.42 27.9276 146.305 28.3345 144.849 28.3345C144.238 28.3345 143.656 28.2653 143.103 28.127V25.3315C143.526 25.4048 143.896 25.4414 144.214 25.4414C145.28 25.4414 145.813 24.8758 145.813 23.7446V9.79199H149.353ZM145.532 6.37402C145.532 5.84505 145.707 5.40967 146.057 5.06787C146.415 4.72607 146.899 4.55518 147.51 4.55518C148.12 4.55518 148.6 4.72607 148.95 5.06787C149.308 5.40967 149.487 5.84505 149.487 6.37402C149.487 6.91113 149.304 7.35059 148.938 7.69238C148.58 8.03418 148.104 8.20508 147.51 8.20508C146.916 8.20508 146.436 8.03418 146.069 7.69238C145.711 7.35059 145.532 6.91113 145.532 6.37402ZM151.562 16.2739C151.562 14.9637 151.815 13.7959 152.319 12.7705C152.824 11.7451 153.548 10.9517 154.492 10.3901C155.444 9.82861 156.547 9.54785 157.8 9.54785C159.583 9.54785 161.035 10.0931 162.158 11.1836C163.289 12.2741 163.92 13.7552 164.05 15.627L164.075 16.5303C164.075 18.5566 163.509 20.1842 162.378 21.4131C161.247 22.6338 159.729 23.2441 157.825 23.2441C155.92 23.2441 154.399 22.6338 153.259 21.4131C152.128 20.1924 151.562 18.5322 151.562 16.4326V16.2739ZM155.09 16.5303C155.09 17.7835 155.326 18.7438 155.798 19.4111C156.27 20.0703 156.946 20.3999 157.825 20.3999C158.679 20.3999 159.347 20.0744 159.827 19.4233C160.307 18.7642 160.547 17.7144 160.547 16.2739C160.547 15.0451 160.307 14.0929 159.827 13.4175C159.347 12.742 158.671 12.4043 157.8 12.4043C156.938 12.4043 156.27 12.742 155.798 13.4175C155.326 14.0848 155.09 15.1224 155.09 16.5303ZM173.669 13.1001C173.189 13.035 172.766 13.0024 172.4 13.0024C171.065 13.0024 170.19 13.4541 169.775 14.3574V23H166.248V9.79199H169.58L169.678 11.3667C170.386 10.1541 171.366 9.54785 172.62 9.54785C173.01 9.54785 173.376 9.60075 173.718 9.70654L173.669 13.1001ZM182.532 19.3501C182.532 18.9188 182.316 18.5811 181.885 18.3369C181.462 18.0846 180.778 17.8608 179.834 17.6655C176.693 17.0063 175.122 15.6717 175.122 13.6616C175.122 12.4897 175.606 11.5132 176.575 10.7319C177.551 9.94255 178.825 9.54785 180.396 9.54785C182.072 9.54785 183.411 9.94255 184.412 10.7319C185.421 11.5213 185.925 12.5467 185.925 13.8081H182.397C182.397 13.3035 182.235 12.8885 181.909 12.563C181.584 12.2293 181.075 12.0625 180.383 12.0625C179.789 12.0625 179.329 12.1968 179.004 12.4653C178.678 12.7339 178.516 13.0757 178.516 13.4907C178.516 13.8813 178.699 14.1987 179.065 14.4429C179.439 14.6789 180.066 14.8864 180.945 15.0654C181.824 15.2363 182.564 15.4316 183.167 15.6514C185.03 16.335 185.962 17.519 185.962 19.2036C185.962 20.408 185.445 21.3846 184.412 22.1333C183.378 22.8739 182.043 23.2441 180.408 23.2441C179.301 23.2441 178.316 23.0488 177.454 22.6582C176.599 22.2594 175.928 21.7183 175.439 21.0347C174.951 20.3429 174.707 19.5983 174.707 18.8008H178.052C178.084 19.4274 178.316 19.9076 178.748 20.2412C179.179 20.5749 179.757 20.7417 180.481 20.7417C181.156 20.7417 181.665 20.6156 182.007 20.3633C182.357 20.1029 182.532 19.7651 182.532 19.3501Z" fill="black"/>
<path d="M1141.04 25.5527L1143 18.4336H1145.95L1142.39 29H1139.69L1136.13 18.4336H1139.08L1141.04 25.5527ZM1150.18 29H1147.35V18.4336H1150.18V29ZM1147.18 15.6992C1147.18 15.276 1147.32 14.9277 1147.6 14.6543C1147.89 14.3809 1148.28 14.2441 1148.76 14.2441C1149.25 14.2441 1149.63 14.3809 1149.92 14.6543C1150.2 14.9277 1150.35 15.276 1150.35 15.6992C1150.35 16.1289 1150.2 16.4805 1149.91 16.7539C1149.62 17.0273 1149.24 17.1641 1148.76 17.1641C1148.29 17.1641 1147.9 17.0273 1147.61 16.7539C1147.32 16.4805 1147.18 16.1289 1147.18 15.6992ZM1157.38 29.1953C1155.83 29.1953 1154.56 28.7201 1153.59 27.7695C1152.62 26.819 1152.13 25.5527 1152.13 23.9707V23.6973C1152.13 22.6361 1152.34 21.6888 1152.75 20.8555C1153.16 20.0156 1153.74 19.3711 1154.49 18.9219C1155.24 18.4661 1156.1 18.2383 1157.06 18.2383C1158.51 18.2383 1159.65 18.694 1160.47 19.6055C1161.31 20.5169 1161.72 21.8092 1161.72 23.4824V24.6348H1154.99C1155.09 25.3249 1155.36 25.8783 1155.81 26.2949C1156.28 26.7116 1156.86 26.9199 1157.56 26.9199C1158.65 26.9199 1159.5 26.526 1160.11 25.7383L1161.5 27.291C1161.07 27.89 1160.5 28.3587 1159.78 28.6973C1159.06 29.0293 1158.26 29.1953 1157.38 29.1953ZM1157.05 20.5234C1156.49 20.5234 1156.04 20.7122 1155.69 21.0898C1155.34 21.4674 1155.12 22.0078 1155.02 22.7109H1158.95V22.4863C1158.94 21.8613 1158.77 21.3796 1158.44 21.041C1158.12 20.696 1157.65 20.5234 1157.05 20.5234ZM1172.52 25.1621L1173.91 18.4336H1176.63L1173.94 29H1171.58L1169.57 22.3496L1167.57 29H1165.22L1162.52 18.4336H1165.25L1166.62 25.1523L1168.56 18.4336H1170.6L1172.52 25.1621ZM1185.67 18.4336L1185.76 19.6152C1186.5 18.6973 1187.52 18.2383 1188.79 18.2383C1190.15 18.2383 1191.09 18.7754 1191.6 19.8496C1192.34 18.7754 1193.4 18.2383 1194.77 18.2383C1195.92 18.2383 1196.77 18.5736 1197.33 19.2441C1197.89 19.9082 1198.17 20.9108 1198.17 22.252V29H1195.34V22.2617C1195.34 21.6628 1195.22 21.2266 1194.98 20.9531C1194.75 20.6732 1194.34 20.5332 1193.74 20.5332C1192.9 20.5332 1192.31 20.9368 1191.99 21.7441L1192 29H1189.17V22.2715C1189.17 21.6595 1189.05 21.2168 1188.81 20.9434C1188.57 20.6699 1188.16 20.5332 1187.58 20.5332C1186.78 20.5332 1186.2 20.8652 1185.84 21.5293V29H1183.02V18.4336H1185.67ZM1199.91 23.6191C1199.91 22.571 1200.11 21.6367 1200.51 20.8164C1200.92 19.9961 1201.49 19.3613 1202.25 18.9121C1203.01 18.4629 1203.89 18.2383 1204.9 18.2383C1206.32 18.2383 1207.48 18.6745 1208.38 19.5469C1209.29 20.4193 1209.79 21.6042 1209.9 23.1016L1209.92 23.8242C1209.92 25.4453 1209.46 26.7474 1208.56 27.7305C1207.65 28.707 1206.44 29.1953 1204.92 29.1953C1203.39 29.1953 1202.18 28.707 1201.26 27.7305C1200.36 26.7539 1199.91 25.4258 1199.91 23.7461V23.6191ZM1202.73 23.8242C1202.73 24.8268 1202.92 25.5951 1203.29 26.1289C1203.67 26.6562 1204.21 26.9199 1204.92 26.9199C1205.6 26.9199 1206.13 26.6595 1206.52 26.1387C1206.9 25.6113 1207.09 24.7715 1207.09 23.6191C1207.09 22.6361 1206.9 21.8743 1206.52 21.334C1206.13 20.7936 1205.59 20.5234 1204.9 20.5234C1204.21 20.5234 1203.67 20.7936 1203.29 21.334C1202.92 21.8678 1202.73 22.6979 1202.73 23.8242ZM1217.59 21.0801C1217.21 21.028 1216.87 21.002 1216.58 21.002C1215.51 21.002 1214.81 21.3633 1214.48 22.0859V29H1211.65V18.4336H1214.32L1214.4 19.6934C1214.96 18.7233 1215.75 18.2383 1216.75 18.2383C1217.06 18.2383 1217.36 18.2806 1217.63 18.3652L1217.59 21.0801ZM1223.63 29.1953C1222.08 29.1953 1220.81 28.7201 1219.84 27.7695C1218.87 26.819 1218.38 25.5527 1218.38 23.9707V23.6973C1218.38 22.6361 1218.59 21.6888 1219 20.8555C1219.41 20.0156 1219.99 19.3711 1220.74 18.9219C1221.49 18.4661 1222.35 18.2383 1223.31 18.2383C1224.76 18.2383 1225.9 18.694 1226.72 19.6055C1227.56 20.5169 1227.97 21.8092 1227.97 23.4824V24.6348H1221.24C1221.34 25.3249 1221.61 25.8783 1222.06 26.2949C1222.53 26.7116 1223.11 26.9199 1223.81 26.9199C1224.9 26.9199 1225.75 26.526 1226.36 25.7383L1227.75 27.291C1227.32 27.89 1226.75 28.3587 1226.03 28.6973C1225.31 29.0293 1224.51 29.1953 1223.63 29.1953ZM1223.3 20.5234C1222.74 20.5234 1222.29 20.7122 1221.94 21.0898C1221.59 21.4674 1221.37 22.0078 1221.27 22.7109H1225.2V22.4863C1225.19 21.8613 1225.02 21.3796 1224.69 21.041C1224.37 20.696 1223.9 20.5234 1223.3 20.5234ZM1240.33 22.9355L1234.65 20.9531V18.2383L1243.16 21.8027V24.0977L1234.65 27.6719V24.9473L1240.33 22.9355Z" fill="black"/>
</svg>
