<svg width="1248" height="61" viewBox="0 0 1248 61" fill="none" xmlns="http://www.w3.org/2000/svg">
<path d="M5.24902 16.7378V23H1.58691V5.22656H8.52051C9.85514 5.22656 11.027 5.4707 12.0361 5.95898C13.0534 6.44727 13.8346 7.14307 14.3799 8.04639C14.9251 8.94157 15.1978 9.96289 15.1978 11.1104C15.1978 12.8519 14.5996 14.2272 13.4033 15.2363C12.2152 16.2373 10.5672 16.7378 8.45947 16.7378H5.24902ZM5.24902 13.7715H8.52051C9.48893 13.7715 10.2254 13.5436 10.73 13.0879C11.2427 12.6322 11.499 11.9811 11.499 11.1348C11.499 10.264 11.2427 9.56006 10.73 9.02295C10.2173 8.48584 9.50928 8.20915 8.60596 8.19287H5.24902V13.7715ZM16.7725 16.2739C16.7725 14.9637 17.0247 13.7959 17.5293 12.7705C18.0339 11.7451 18.7581 10.9517 19.7021 10.3901C20.6543 9.82861 21.757 9.54785 23.0103 9.54785C24.7925 9.54785 26.2451 10.0931 27.3682 11.1836C28.4993 12.2741 29.13 13.7552 29.2603 15.627L29.2847 16.5303C29.2847 18.5566 28.7191 20.1842 27.5879 21.4131C26.4567 22.6338 24.939 23.2441 23.0347 23.2441C21.1304 23.2441 19.6086 22.6338 18.4692 21.4131C17.3381 20.1924 16.7725 18.5322 16.7725 16.4326V16.2739ZM20.3003 16.5303C20.3003 17.7835 20.5363 18.7438 21.0083 19.4111C21.4803 20.0703 22.1558 20.3999 23.0347 20.3999C23.8892 20.3999 24.5565 20.0744 25.0366 19.4233C25.5168 18.7642 25.7568 17.7144 25.7568 16.2739C25.7568 15.0451 25.5168 14.0929 25.0366 13.4175C24.5565 12.742 23.881 12.4043 23.0103 12.4043C22.1476 12.4043 21.4803 12.742 21.0083 13.4175C20.5363 14.0848 20.3003 15.1224 20.3003 16.5303ZM43.3472 16.5181C43.3472 18.5526 42.8833 20.1842 41.9556 21.4131C41.036 22.6338 39.7909 23.2441 38.2202 23.2441C36.8856 23.2441 35.8073 22.7803 34.9854 21.8525V28.0781H31.4575V9.79199H34.729L34.8511 11.0859C35.7056 10.0605 36.8205 9.54785 38.1958 9.54785C39.8234 9.54785 41.0889 10.1501 41.9922 11.3545C42.8955 12.5589 43.3472 14.2191 43.3472 16.335V16.5181ZM39.8193 16.2617C39.8193 15.0329 39.5996 14.0848 39.1602 13.4175C38.7288 12.7502 38.0981 12.4165 37.2681 12.4165C36.1613 12.4165 35.4004 12.8397 34.9854 13.686V19.0938C35.4167 19.9645 36.1857 20.3999 37.2925 20.3999C38.9771 20.3999 39.8193 19.0205 39.8193 16.2617ZM53.4546 21.6572C52.5838 22.7152 51.3794 23.2441 49.8413 23.2441C48.4253 23.2441 47.3429 22.8372 46.5942 22.0234C45.8537 21.2096 45.4753 20.0174 45.459 18.4468V9.79199H48.9868V18.3247C48.9868 19.7 49.6134 20.3877 50.8667 20.3877C52.063 20.3877 52.8849 19.9727 53.3325 19.1426V9.79199H56.8726V23H53.5522L53.4546 21.6572ZM63.2568 23H59.7168V4.25H63.2568V23ZM73.8281 23C73.6654 22.6826 73.5474 22.2879 73.4741 21.8159C72.6196 22.7681 71.5088 23.2441 70.1416 23.2441C68.8477 23.2441 67.7734 22.8698 66.9189 22.1211C66.0726 21.3724 65.6494 20.4284 65.6494 19.2891C65.6494 17.8893 66.1662 16.8151 67.1997 16.0664C68.2414 15.3177 69.7428 14.9393 71.7041 14.9312H73.3276V14.1743C73.3276 13.564 73.1689 13.0757 72.8516 12.7095C72.5423 12.3433 72.05 12.1602 71.3745 12.1602C70.7804 12.1602 70.3125 12.3026 69.9707 12.5874C69.637 12.8722 69.4702 13.2629 69.4702 13.7593H65.9424C65.9424 12.9943 66.1784 12.2863 66.6504 11.6353C67.1224 10.9842 67.7897 10.4756 68.6523 10.1094C69.515 9.73503 70.4834 9.54785 71.5576 9.54785C73.1852 9.54785 74.4751 9.95882 75.4272 10.7808C76.3875 11.5946 76.8677 12.742 76.8677 14.2231V19.9482C76.8758 21.2015 77.0508 22.1496 77.3926 22.7925V23H73.8281ZM70.9106 20.5464C71.4315 20.5464 71.9116 20.4325 72.3511 20.2046C72.7905 19.9686 73.116 19.6553 73.3276 19.2646V16.9941H72.0093C70.2433 16.9941 69.3034 17.6045 69.1895 18.8252L69.1772 19.0327C69.1772 19.4722 69.3319 19.8343 69.6411 20.1191C69.9504 20.404 70.3735 20.5464 70.9106 20.5464ZM86.9995 13.1001C86.5194 13.035 86.0962 13.0024 85.73 13.0024C84.3953 13.0024 83.5205 13.4541 83.1055 14.3574V23H79.5776V9.79199H82.9102L83.0078 11.3667C83.7158 10.1541 84.6965 9.54785 85.9497 9.54785C86.3403 9.54785 86.7065 9.60075 87.0483 9.70654L86.9995 13.1001ZM101.733 18.5933L105.762 5.22656H109.839L103.65 23H99.8291L93.6646 5.22656H97.7295L101.733 18.5933ZM115.015 23H111.475V9.79199H115.015V23ZM111.267 6.37402C111.267 5.84505 111.442 5.40967 111.792 5.06787C112.15 4.72607 112.634 4.55518 113.245 4.55518C113.847 4.55518 114.327 4.72607 114.685 5.06787C115.043 5.40967 115.222 5.84505 115.222 6.37402C115.222 6.91113 115.039 7.35059 114.673 7.69238C114.315 8.03418 113.839 8.20508 113.245 8.20508C112.651 8.20508 112.17 8.03418 111.804 7.69238C111.446 7.35059 111.267 6.91113 111.267 6.37402ZM117.383 16.2983C117.383 14.2394 117.843 12.5996 118.762 11.3789C119.69 10.1582 120.955 9.54785 122.559 9.54785C123.844 9.54785 124.906 10.028 125.745 10.9883V4.25H129.285V23H126.099L125.928 21.5962C125.049 22.6948 123.918 23.2441 122.534 23.2441C120.98 23.2441 119.731 22.6338 118.787 21.4131C117.851 20.1842 117.383 18.4793 117.383 16.2983ZM120.911 16.5547C120.911 17.7917 121.126 18.7397 121.558 19.3989C121.989 20.0581 122.616 20.3877 123.438 20.3877C124.528 20.3877 125.297 19.9279 125.745 19.0083V13.7959C125.305 12.8763 124.544 12.4165 123.462 12.4165C121.761 12.4165 120.911 13.7959 120.911 16.5547ZM138.098 23.2441C136.161 23.2441 134.583 22.6501 133.362 21.4619C132.149 20.2738 131.543 18.6909 131.543 16.7134V16.3716C131.543 15.0451 131.799 13.861 132.312 12.8193C132.825 11.7695 133.549 10.9639 134.485 10.4023C135.429 9.83268 136.503 9.54785 137.708 9.54785C139.514 9.54785 140.934 10.1175 141.968 11.2568C143.009 12.3962 143.53 14.0116 143.53 16.103V17.5435H135.12C135.234 18.4061 135.575 19.0978 136.145 19.6187C136.723 20.1395 137.451 20.3999 138.33 20.3999C139.689 20.3999 140.751 19.9076 141.516 18.9229L143.25 20.8638C142.721 21.6125 142.004 22.1984 141.101 22.6216C140.198 23.0366 139.197 23.2441 138.098 23.2441ZM137.695 12.4043C136.995 12.4043 136.426 12.6403 135.986 13.1123C135.555 13.5843 135.278 14.2598 135.156 15.1387H140.063V14.8579C140.047 14.0767 139.836 13.4744 139.429 13.0513C139.022 12.62 138.444 12.4043 137.695 12.4043ZM144.995 16.2739C144.995 14.9637 145.247 13.7959 145.752 12.7705C146.257 11.7451 146.981 10.9517 147.925 10.3901C148.877 9.82861 149.98 9.54785 151.233 9.54785C153.015 9.54785 154.468 10.0931 155.591 11.1836C156.722 12.2741 157.353 13.7552 157.483 15.627L157.507 16.5303C157.507 18.5566 156.942 20.1842 155.811 21.4131C154.679 22.6338 153.162 23.2441 151.257 23.2441C149.353 23.2441 147.831 22.6338 146.692 21.4131C145.561 20.1924 144.995 18.5322 144.995 16.4326V16.2739ZM148.523 16.5303C148.523 17.7835 148.759 18.7438 149.231 19.4111C149.703 20.0703 150.378 20.3999 151.257 20.3999C152.112 20.3999 152.779 20.0744 153.259 19.4233C153.739 18.7642 153.979 17.7144 153.979 16.2739C153.979 15.0451 153.739 14.0929 153.259 13.4175C152.779 12.742 152.104 12.4043 151.233 12.4043C150.37 12.4043 149.703 12.742 149.231 13.4175C148.759 14.0848 148.523 15.1224 148.523 16.5303ZM166.833 19.3501C166.833 18.9188 166.618 18.5811 166.187 18.3369C165.763 18.0846 165.08 17.8608 164.136 17.6655C160.994 17.0063 159.424 15.6717 159.424 13.6616C159.424 12.4897 159.908 11.5132 160.876 10.7319C161.853 9.94255 163.127 9.54785 164.697 9.54785C166.374 9.54785 167.712 9.94255 168.713 10.7319C169.722 11.5213 170.227 12.5467 170.227 13.8081H166.699C166.699 13.3035 166.536 12.8885 166.211 12.563C165.885 12.2293 165.377 12.0625 164.685 12.0625C164.091 12.0625 163.631 12.1968 163.306 12.4653C162.98 12.7339 162.817 13.0757 162.817 13.4907C162.817 13.8813 163 14.1987 163.367 14.4429C163.741 14.6789 164.368 14.8864 165.247 15.0654C166.125 15.2363 166.866 15.4316 167.468 15.6514C169.332 16.335 170.264 17.519 170.264 19.2036C170.264 20.408 169.747 21.3846 168.713 22.1333C167.68 22.8739 166.345 23.2441 164.709 23.2441C163.603 23.2441 162.618 23.0488 161.755 22.6582C160.901 22.2594 160.229 21.7183 159.741 21.0347C159.253 20.3429 159.009 19.5983 159.009 18.8008H162.354C162.386 19.4274 162.618 19.9076 163.049 20.2412C163.481 20.5749 164.058 20.7417 164.783 20.7417C165.458 20.7417 165.967 20.6156 166.309 20.3633C166.659 20.1029 166.833 19.7651 166.833 19.3501Z" fill="black"/>
<path d="M1141.04 25.5527L1143 18.4336H1145.95L1142.39 29H1139.69L1136.13 18.4336H1139.08L1141.04 25.5527ZM1150.18 29H1147.35V18.4336H1150.18V29ZM1147.18 15.6992C1147.18 15.276 1147.32 14.9277 1147.6 14.6543C1147.89 14.3809 1148.28 14.2441 1148.76 14.2441C1149.25 14.2441 1149.63 14.3809 1149.92 14.6543C1150.2 14.9277 1150.35 15.276 1150.35 15.6992C1150.35 16.1289 1150.2 16.4805 1149.91 16.7539C1149.62 17.0273 1149.24 17.1641 1148.76 17.1641C1148.29 17.1641 1147.9 17.0273 1147.61 16.7539C1147.32 16.4805 1147.18 16.1289 1147.18 15.6992ZM1157.38 29.1953C1155.83 29.1953 1154.56 28.7201 1153.59 27.7695C1152.62 26.819 1152.13 25.5527 1152.13 23.9707V23.6973C1152.13 22.6361 1152.34 21.6888 1152.75 20.8555C1153.16 20.0156 1153.74 19.3711 1154.49 18.9219C1155.24 18.4661 1156.1 18.2383 1157.06 18.2383C1158.51 18.2383 1159.65 18.694 1160.47 19.6055C1161.31 20.5169 1161.72 21.8092 1161.72 23.4824V24.6348H1154.99C1155.09 25.3249 1155.36 25.8783 1155.81 26.2949C1156.28 26.7116 1156.86 26.9199 1157.56 26.9199C1158.65 26.9199 1159.5 26.526 1160.11 25.7383L1161.5 27.291C1161.07 27.89 1160.5 28.3587 1159.78 28.6973C1159.06 29.0293 1158.26 29.1953 1157.38 29.1953ZM1157.05 20.5234C1156.49 20.5234 1156.04 20.7122 1155.69 21.0898C1155.34 21.4674 1155.12 22.0078 1155.02 22.7109H1158.95V22.4863C1158.94 21.8613 1158.77 21.3796 1158.44 21.041C1158.12 20.696 1157.65 20.5234 1157.05 20.5234ZM1172.52 25.1621L1173.91 18.4336H1176.63L1173.94 29H1171.58L1169.57 22.3496L1167.57 29H1165.22L1162.52 18.4336H1165.25L1166.62 25.1523L1168.56 18.4336H1170.6L1172.52 25.1621ZM1185.67 18.4336L1185.76 19.6152C1186.5 18.6973 1187.52 18.2383 1188.79 18.2383C1190.15 18.2383 1191.09 18.7754 1191.6 19.8496C1192.34 18.7754 1193.4 18.2383 1194.77 18.2383C1195.92 18.2383 1196.77 18.5736 1197.33 19.2441C1197.89 19.9082 1198.17 20.9108 1198.17 22.252V29H1195.34V22.2617C1195.34 21.6628 1195.22 21.2266 1194.98 20.9531C1194.75 20.6732 1194.34 20.5332 1193.74 20.5332C1192.9 20.5332 1192.31 20.9368 1191.99 21.7441L1192 29H1189.17V22.2715C1189.17 21.6595 1189.05 21.2168 1188.81 20.9434C1188.57 20.6699 1188.16 20.5332 1187.58 20.5332C1186.78 20.5332 1186.2 20.8652 1185.84 21.5293V29H1183.02V18.4336H1185.67ZM1199.91 23.6191C1199.91 22.571 1200.11 21.6367 1200.51 20.8164C1200.92 19.9961 1201.49 19.3613 1202.25 18.9121C1203.01 18.4629 1203.89 18.2383 1204.9 18.2383C1206.32 18.2383 1207.48 18.6745 1208.38 19.5469C1209.29 20.4193 1209.79 21.6042 1209.9 23.1016L1209.92 23.8242C1209.92 25.4453 1209.46 26.7474 1208.56 27.7305C1207.65 28.707 1206.44 29.1953 1204.92 29.1953C1203.39 29.1953 1202.18 28.707 1201.26 27.7305C1200.36 26.7539 1199.91 25.4258 1199.91 23.7461V23.6191ZM1202.73 23.8242C1202.73 24.8268 1202.92 25.5951 1203.29 26.1289C1203.67 26.6562 1204.21 26.9199 1204.92 26.9199C1205.6 26.9199 1206.13 26.6595 1206.52 26.1387C1206.9 25.6113 1207.09 24.7715 1207.09 23.6191C1207.09 22.6361 1206.9 21.8743 1206.52 21.334C1206.13 20.7936 1205.59 20.5234 1204.9 20.5234C1204.21 20.5234 1203.67 20.7936 1203.29 21.334C1202.92 21.8678 1202.73 22.6979 1202.73 23.8242ZM1217.59 21.0801C1217.21 21.028 1216.87 21.002 1216.58 21.002C1215.51 21.002 1214.81 21.3633 1214.48 22.0859V29H1211.65V18.4336H1214.32L1214.4 19.6934C1214.96 18.7233 1215.75 18.2383 1216.75 18.2383C1217.06 18.2383 1217.36 18.2806 1217.63 18.3652L1217.59 21.0801ZM1223.63 29.1953C1222.08 29.1953 1220.81 28.7201 1219.84 27.7695C1218.87 26.819 1218.38 25.5527 1218.38 23.9707V23.6973C1218.38 22.6361 1218.59 21.6888 1219 20.8555C1219.41 20.0156 1219.99 19.3711 1220.74 18.9219C1221.49 18.4661 1222.35 18.2383 1223.31 18.2383C1224.76 18.2383 1225.9 18.694 1226.72 19.6055C1227.56 20.5169 1227.97 21.8092 1227.97 23.4824V24.6348H1221.24C1221.34 25.3249 1221.61 25.8783 1222.06 26.2949C1222.53 26.7116 1223.11 26.9199 1223.81 26.9199C1224.9 26.9199 1225.75 26.526 1226.36 25.7383L1227.75 27.291C1227.32 27.89 1226.75 28.3587 1226.03 28.6973C1225.31 29.0293 1224.51 29.1953 1223.63 29.1953ZM1223.3 20.5234C1222.74 20.5234 1222.29 20.7122 1221.94 21.0898C1221.59 21.4674 1221.37 22.0078 1221.27 22.7109H1225.2V22.4863C1225.19 21.8613 1225.02 21.3796 1224.69 21.041C1224.37 20.696 1223.9 20.5234 1223.3 20.5234ZM1240.33 22.9355L1234.65 20.9531V18.2383L1243.16 21.8027V24.0977L1234.65 27.6719V24.9473L1240.33 22.9355Z" fill="black"/>
</svg>
