<svg width="1220" height="37" viewBox="0 0 1220 37" fill="none" xmlns="http://www.w3.org/2000/svg">
<path d="M1105.64 18.32L1101.06 29H1098.48L1093.9 18.32H1096.5L1099.82 26.24L1103.24 18.32H1105.64ZM1107.2 18.32H1109.7V29H1107.2V18.32ZM1108.46 16.56C1108.01 16.56 1107.63 16.42 1107.32 16.14C1107.02 15.8467 1106.86 15.4867 1106.86 15.06C1106.86 14.6333 1107.02 14.28 1107.32 14C1107.63 13.7067 1108.01 13.56 1108.46 13.56C1108.92 13.56 1109.3 13.7 1109.6 13.98C1109.91 14.2467 1110.06 14.5867 1110.06 15C1110.06 15.44 1109.91 15.8133 1109.6 16.12C1109.31 16.4133 1108.93 16.56 1108.46 16.56ZM1123.02 23.72C1123.02 23.8933 1123.01 24.14 1122.98 24.46H1114.6C1114.75 25.2467 1115.13 25.8733 1115.74 26.34C1116.37 26.7933 1117.14 27.02 1118.06 27.02C1119.24 27.02 1120.2 26.6333 1120.96 25.86L1122.3 27.4C1121.82 27.9733 1121.22 28.4067 1120.48 28.7C1119.75 28.9933 1118.92 29.14 1118 29.14C1116.83 29.14 1115.8 28.9067 1114.9 28.44C1114.01 27.9733 1113.32 27.3267 1112.82 26.5C1112.34 25.66 1112.1 24.7133 1112.1 23.66C1112.1 22.62 1112.34 21.6867 1112.8 20.86C1113.28 20.02 1113.94 19.3667 1114.78 18.9C1115.62 18.4333 1116.57 18.2 1117.62 18.2C1118.66 18.2 1119.59 18.4333 1120.4 18.9C1121.23 19.3533 1121.87 20 1122.32 20.84C1122.79 21.6667 1123.02 22.6267 1123.02 23.72ZM1117.62 20.2C1116.82 20.2 1116.14 20.44 1115.58 20.92C1115.04 21.3867 1114.7 22.0133 1114.58 22.8H1120.64C1120.54 22.0267 1120.21 21.4 1119.66 20.92C1119.12 20.44 1118.44 20.2 1117.62 20.2ZM1141.89 18.32L1137.95 29H1135.55L1132.79 21.64L1129.99 29H1127.59L1123.67 18.32H1126.03L1128.85 26.2L1131.79 18.32H1133.89L1136.77 26.24L1139.67 18.32H1141.89ZM1162.62 18.2C1163.96 18.2 1165.03 18.5933 1165.82 19.38C1166.6 20.1533 1167 21.32 1167 22.88V29H1164.5V23.2C1164.5 22.2667 1164.29 21.5667 1163.88 21.1C1163.46 20.62 1162.87 20.38 1162.1 20.38C1161.26 20.38 1160.58 20.66 1160.08 21.22C1159.57 21.7667 1159.32 22.5533 1159.32 23.58V29H1156.82V23.2C1156.82 22.2667 1156.61 21.5667 1156.2 21.1C1155.78 20.62 1155.19 20.38 1154.42 20.38C1153.56 20.38 1152.88 20.6533 1152.38 21.2C1151.88 21.7467 1151.64 22.54 1151.64 23.58V29H1149.14V18.32H1151.52V19.68C1151.92 19.2 1152.42 18.8333 1153.02 18.58C1153.62 18.3267 1154.28 18.2 1155.02 18.2C1155.82 18.2 1156.52 18.3533 1157.14 18.66C1157.76 18.9533 1158.26 19.3933 1158.62 19.98C1159.06 19.42 1159.62 18.9867 1160.32 18.68C1161.01 18.36 1161.78 18.2 1162.62 18.2ZM1175.09 29.14C1174.01 29.14 1173.04 28.9067 1172.17 28.44C1171.3 27.9733 1170.62 27.3267 1170.13 26.5C1169.65 25.66 1169.41 24.7133 1169.41 23.66C1169.41 22.6067 1169.65 21.6667 1170.13 20.84C1170.62 20.0133 1171.3 19.3667 1172.17 18.9C1173.04 18.4333 1174.01 18.2 1175.09 18.2C1176.18 18.2 1177.16 18.4333 1178.03 18.9C1178.9 19.3667 1179.57 20.0133 1180.05 20.84C1180.54 21.6667 1180.79 22.6067 1180.79 23.66C1180.79 24.7133 1180.54 25.66 1180.05 26.5C1179.57 27.3267 1178.9 27.9733 1178.03 28.44C1177.16 28.9067 1176.18 29.14 1175.09 29.14ZM1175.09 27C1176.01 27 1176.77 26.6933 1177.37 26.08C1177.97 25.4667 1178.27 24.66 1178.27 23.66C1178.27 22.66 1177.97 21.8533 1177.37 21.24C1176.77 20.6267 1176.01 20.32 1175.09 20.32C1174.17 20.32 1173.41 20.6267 1172.81 21.24C1172.22 21.8533 1171.93 22.66 1171.93 23.66C1171.93 24.66 1172.22 25.4667 1172.81 26.08C1173.41 26.6933 1174.17 27 1175.09 27ZM1185.56 19.88C1186.28 18.76 1187.55 18.2 1189.36 18.2V20.58C1189.15 20.54 1188.95 20.52 1188.78 20.52C1187.81 20.52 1187.05 20.8067 1186.5 21.38C1185.95 21.94 1185.68 22.7533 1185.68 23.82V29H1183.18V18.32H1185.56V19.88ZM1201.42 23.72C1201.42 23.8933 1201.41 24.14 1201.38 24.46H1193C1193.15 25.2467 1193.53 25.8733 1194.14 26.34C1194.77 26.7933 1195.54 27.02 1196.46 27.02C1197.64 27.02 1198.6 26.6333 1199.36 25.86L1200.7 27.4C1200.22 27.9733 1199.62 28.4067 1198.88 28.7C1198.15 28.9933 1197.32 29.14 1196.4 29.14C1195.23 29.14 1194.2 28.9067 1193.3 28.44C1192.41 27.9733 1191.72 27.3267 1191.22 26.5C1190.74 25.66 1190.5 24.7133 1190.5 23.66C1190.5 22.62 1190.74 21.6867 1191.2 20.86C1191.68 20.02 1192.34 19.3667 1193.18 18.9C1194.02 18.4333 1194.97 18.2 1196.02 18.2C1197.06 18.2 1197.99 18.4333 1198.8 18.9C1199.63 19.3533 1200.27 20 1200.72 20.84C1201.19 21.6667 1201.42 22.6267 1201.42 23.72ZM1196.02 20.2C1195.22 20.2 1194.54 20.44 1193.98 20.92C1193.44 21.3867 1193.1 22.0133 1192.98 22.8H1199.04C1198.94 22.0267 1198.61 21.4 1198.06 20.92C1197.52 20.44 1196.84 20.2 1196.02 20.2ZM1218.23 20.92V23.08L1209.01 26.66V24.58L1215.91 22L1209.01 19.42V17.34L1218.23 20.92Z" fill="black"/>
<path d="M12.54 29.3C10.42 29.3 8.5 28.84 6.78 27.92C5.08 26.98 3.74 25.69 2.76 24.05C1.8 22.41 1.32 20.56 1.32 18.5C1.32 16.44 1.81 14.59 2.79 12.95C3.77 11.31 5.11 10.03 6.81 9.11C8.53 8.17 10.45 7.7 12.57 7.7C14.29 7.7 15.86 8 17.28 8.6C18.7 9.2 19.9 10.07 20.88 11.21L18.36 13.58C16.84 11.94 14.97 11.12 12.75 11.12C11.31 11.12 10.02 11.44 8.88 12.08C7.74 12.7 6.85 13.57 6.21 14.69C5.57 15.81 5.25 17.08 5.25 18.5C5.25 19.92 5.57 21.19 6.21 22.31C6.85 23.43 7.74 24.31 8.88 24.95C10.02 25.57 11.31 25.88 12.75 25.88C14.97 25.88 16.84 25.05 18.36 23.39L20.88 25.79C19.9 26.93 18.69 27.8 17.25 28.4C15.83 29 14.26 29.3 12.54 29.3ZM30.8709 29.21C29.2509 29.21 27.7909 28.86 26.4909 28.16C25.1909 27.46 24.1709 26.49 23.4309 25.25C22.7109 23.99 22.3509 22.57 22.3509 20.99C22.3509 19.41 22.7109 18 23.4309 16.76C24.1709 15.52 25.1909 14.55 26.4909 13.85C27.7909 13.15 29.2509 12.8 30.8709 12.8C32.5109 12.8 33.9809 13.15 35.2809 13.85C36.5809 14.55 37.5909 15.52 38.3109 16.76C39.0509 18 39.4209 19.41 39.4209 20.99C39.4209 22.57 39.0509 23.99 38.3109 25.25C37.5909 26.49 36.5809 27.46 35.2809 28.16C33.9809 28.86 32.5109 29.21 30.8709 29.21ZM30.8709 26C32.2509 26 33.3909 25.54 34.2909 24.62C35.1909 23.7 35.6409 22.49 35.6409 20.99C35.6409 19.49 35.1909 18.28 34.2909 17.36C33.3909 16.44 32.2509 15.98 30.8709 15.98C29.4909 15.98 28.3509 16.44 27.4509 17.36C26.5709 18.28 26.1309 19.49 26.1309 20.99C26.1309 22.49 26.5709 23.7 27.4509 24.62C28.3509 25.54 29.4909 26 30.8709 26ZM63.2269 12.8C65.2469 12.8 66.8469 13.39 68.0269 14.57C69.2069 15.73 69.7969 17.48 69.7969 19.82V29H66.0469V20.3C66.0469 18.9 65.7369 17.85 65.1169 17.15C64.4969 16.43 63.6069 16.07 62.4469 16.07C61.1869 16.07 60.1769 16.49 59.4169 17.33C58.6569 18.15 58.2769 19.33 58.2769 20.87V29H54.5269V20.3C54.5269 18.9 54.2169 17.85 53.5969 17.15C52.9769 16.43 52.0869 16.07 50.9269 16.07C49.6469 16.07 48.6269 16.48 47.8669 17.3C47.1269 18.12 46.7569 19.31 46.7569 20.87V29H43.0069V12.98H46.5769V15.02C47.1769 14.3 47.9269 13.75 48.8269 13.37C49.7269 12.99 50.7269 12.8 51.8269 12.8C53.0269 12.8 54.0869 13.03 55.0069 13.49C55.9469 13.93 56.6869 14.59 57.2269 15.47C57.8869 14.63 58.7369 13.98 59.7769 13.52C60.8169 13.04 61.9669 12.8 63.2269 12.8ZM83.4689 12.8C85.0289 12.8 86.4189 13.14 87.6389 13.82C88.8789 14.5 89.8489 15.46 90.5489 16.7C91.2489 17.94 91.5989 19.37 91.5989 20.99C91.5989 22.61 91.2489 24.05 90.5489 25.31C89.8489 26.55 88.8789 27.51 87.6389 28.19C86.4189 28.87 85.0289 29.21 83.4689 29.21C81.3089 29.21 79.5989 28.49 78.3389 27.05V34.82H74.5889V12.98H78.1589V15.08C78.7789 14.32 79.5389 13.75 80.4389 13.37C81.3589 12.99 82.3689 12.8 83.4689 12.8ZM83.0489 26C84.4289 26 85.5589 25.54 86.4389 24.62C87.3389 23.7 87.7889 22.49 87.7889 20.99C87.7889 19.49 87.3389 18.28 86.4389 17.36C85.5589 16.44 84.4289 15.98 83.0489 15.98C82.1489 15.98 81.3389 16.19 80.6189 16.61C79.8989 17.01 79.3289 17.59 78.9089 18.35C78.4889 19.11 78.2789 19.99 78.2789 20.99C78.2789 21.99 78.4889 22.87 78.9089 23.63C79.3289 24.39 79.8989 24.98 80.6189 25.4C81.3389 25.8 82.1489 26 83.0489 26ZM101.07 12.8C103.43 12.8 105.23 13.37 106.47 14.51C107.73 15.63 108.36 17.33 108.36 19.61V29H104.82V27.05C104.36 27.75 103.7 28.29 102.84 28.67C102 29.03 100.98 29.21 99.7802 29.21C98.5802 29.21 97.5302 29.01 96.6302 28.61C95.7302 28.19 95.0302 27.62 94.5302 26.9C94.0502 26.16 93.8102 25.33 93.8102 24.41C93.8102 22.97 94.3402 21.82 95.4002 20.96C96.4802 20.08 98.1702 19.64 100.47 19.64H104.61V19.4C104.61 18.28 104.27 17.42 103.59 16.82C102.93 16.22 101.94 15.92 100.62 15.92C99.7202 15.92 98.8302 16.06 97.9502 16.34C97.0902 16.62 96.3602 17.01 95.7602 17.51L94.2902 14.78C95.1302 14.14 96.1402 13.65 97.3202 13.31C98.5002 12.97 99.7502 12.8 101.07 12.8ZM100.56 26.48C101.5 26.48 102.33 26.27 103.05 25.85C103.79 25.41 104.31 24.79 104.61 23.99V22.13H100.74C98.5802 22.13 97.5002 22.84 97.5002 24.26C97.5002 24.94 97.7702 25.48 98.3102 25.88C98.8502 26.28 99.6002 26.48 100.56 26.48ZM122.263 12.8C124.283 12.8 125.903 13.39 127.123 14.57C128.343 15.75 128.953 17.5 128.953 19.82V29H125.203V20.3C125.203 18.9 124.873 17.85 124.213 17.15C123.553 16.43 122.613 16.07 121.393 16.07C120.013 16.07 118.923 16.49 118.123 17.33C117.323 18.15 116.923 19.34 116.923 20.9V29H113.173V12.98H116.743V15.05C117.363 14.31 118.143 13.75 119.083 13.37C120.023 12.99 121.083 12.8 122.263 12.8ZM133.71 12.98H137.46V29H133.71V12.98ZM135.6 10.34C134.92 10.34 134.35 10.13 133.89 9.71C133.43 9.27 133.2 8.73 133.2 8.09C133.2 7.45 133.43 6.92 133.89 6.5C134.35 6.06 134.92 5.84 135.6 5.84C136.28 5.84 136.85 6.05 137.31 6.47C137.77 6.87 138 7.38 138 8C138 8.66 137.77 9.22 137.31 9.68C136.87 10.12 136.3 10.34 135.6 10.34ZM157.442 21.08C157.442 21.34 157.422 21.71 157.382 22.19H144.812C145.032 23.37 145.602 24.31 146.522 25.01C147.462 25.69 148.622 26.03 150.002 26.03C151.762 26.03 153.212 25.45 154.352 24.29L156.362 26.6C155.642 27.46 154.732 28.11 153.632 28.55C152.532 28.99 151.292 29.21 149.912 29.21C148.152 29.21 146.602 28.86 145.262 28.16C143.922 27.46 142.882 26.49 142.142 25.25C141.422 23.99 141.062 22.57 141.062 20.99C141.062 19.43 141.412 18.03 142.112 16.79C142.832 15.53 143.822 14.55 145.082 13.85C146.342 13.15 147.762 12.8 149.342 12.8C150.902 12.8 152.292 13.15 153.512 13.85C154.752 14.53 155.712 15.5 156.392 16.76C157.092 18 157.442 19.44 157.442 21.08ZM149.342 15.8C148.142 15.8 147.122 16.16 146.282 16.88C145.462 17.58 144.962 18.52 144.782 19.7H153.872C153.712 18.54 153.222 17.6 152.402 16.88C151.582 16.16 150.562 15.8 149.342 15.8ZM165.994 29.21C164.694 29.21 163.424 29.04 162.184 28.7C160.944 28.36 159.954 27.93 159.214 27.41L160.654 24.56C161.374 25.04 162.234 25.43 163.234 25.73C164.254 26.01 165.254 26.15 166.234 26.15C168.474 26.15 169.594 25.56 169.594 24.38C169.594 23.82 169.304 23.43 168.724 23.21C168.164 22.99 167.254 22.78 165.994 22.58C164.674 22.38 163.594 22.15 162.754 21.89C161.934 21.63 161.214 21.18 160.594 20.54C159.994 19.88 159.694 18.97 159.694 17.81C159.694 16.29 160.324 15.08 161.584 14.18C162.864 13.26 164.584 12.8 166.744 12.8C167.844 12.8 168.944 12.93 170.044 13.19C171.144 13.43 172.044 13.76 172.744 14.18L171.304 17.03C169.944 16.23 168.414 15.83 166.714 15.83C165.614 15.83 164.774 16 164.194 16.34C163.634 16.66 163.354 17.09 163.354 17.63C163.354 18.23 163.654 18.66 164.254 18.92C164.874 19.16 165.824 19.39 167.104 19.61C168.384 19.81 169.434 20.04 170.254 20.3C171.074 20.56 171.774 21 172.354 21.62C172.954 22.24 173.254 23.12 173.254 24.26C173.254 25.76 172.604 26.96 171.304 27.86C170.004 28.76 168.234 29.21 165.994 29.21Z" fill="black"/>
</svg>
