<svg width="134" height="49" viewBox="0 0 134 49" fill="none" xmlns="http://www.w3.org/2000/svg">
<path d="M37.5354 0V47.5277H27.9914C24.0201 47.5277 21.9277 48.0402 17.2304 48.0402C13.985 48.0402 11.0386 47.3142 8.39101 45.8623C5.78617 44.4105 3.73646 42.3394 2.24187 39.6491C0.747292 36.9589 0 33.8416 0 30.2973C0 26.753 0.747292 23.6358 2.24187 20.9455C3.73646 18.2553 5.78617 16.1842 8.39101 14.7323C11.0386 13.2804 13.985 12.5545 17.2304 12.5545C21.6287 12.5545 25.0663 13.9423 27.543 16.718V0H37.5354ZM18.9598 39.8413C21.4793 39.8413 23.5717 38.9873 25.2371 37.2792C26.9025 35.5284 27.7352 33.2011 27.7352 30.2973C27.7352 27.3936 26.9025 25.0876 25.2371 23.3795C23.5717 21.6287 21.4793 20.7533 18.9598 20.7533C16.3977 20.7533 14.2839 21.6287 12.6185 23.3795C10.9532 25.0876 10.1205 27.3936 10.1205 30.2973C10.1205 33.2011 10.9532 35.5284 12.6185 37.2792C14.2839 38.9873 16.3977 39.8413 18.9598 39.8413Z" fill="#2C008F" fill-opacity="0.87"/>
<path d="M52.2036 12.1061C57.5414 12.1061 61.6409 13.3872 64.5019 15.9493C67.363 18.4688 68.7935 22.2906 68.7935 27.4149V47.0794H59.4417V42.7878C57.5628 45.9904 54.0612 47.5918 48.9369 47.5918C46.2894 47.5918 43.9834 47.1434 42.0191 46.2467C40.0975 45.3499 38.6243 44.1115 37.5994 42.5316C36.5746 40.9516 36.0621 39.1581 36.0621 37.1511C36.0621 33.9484 37.2578 31.4289 39.6491 29.5927C42.0832 27.7565 45.8196 26.8384 50.8585 26.8384H58.8012C58.8012 24.6606 58.1393 22.9952 56.8155 21.8423C55.4917 20.6466 53.5061 20.0488 50.8585 20.0488C49.0223 20.0488 47.2075 20.3477 45.414 20.9455C43.6632 21.5006 42.1686 22.2693 40.9302 23.2514L37.3432 16.2696C39.2221 14.9458 41.464 13.921 44.0688 13.195C46.7164 12.4691 49.428 12.1061 52.2036 12.1061ZM51.435 40.8662C53.1431 40.8662 54.659 40.4818 55.9828 39.7132C57.3066 38.9019 58.246 37.7275 58.8012 36.1903V32.6673H51.9474C47.848 32.6673 45.7983 34.0124 45.7983 36.7027C45.7983 37.9837 46.2894 39.0086 47.2715 39.7772C48.2964 40.5032 49.6842 40.8662 51.435 40.8662Z" fill="#2C008F" fill-opacity="0.87"/>
<path d="M99.5392 39.3929V47.0794H68.7935V41.0583L86.3442 20.305H69.2419V12.6185H98.9627V18.6396L81.4121 39.3929H99.5392Z" fill="#2C008F" fill-opacity="0.87"/>
<path d="M134 30.4254C134 30.5535 133.936 31.4503 133.808 33.1157H107.738C108.208 35.2508 109.318 36.9375 111.069 38.1759C112.82 39.4143 114.997 40.0335 117.602 40.0335C119.396 40.0335 120.976 39.7773 122.342 39.2648C123.751 38.7097 125.054 37.8556 126.25 36.7027L131.566 42.4675C128.321 46.1826 123.581 48.0402 117.346 48.0402C113.46 48.0402 110.023 47.2929 107.033 45.7983C104.044 44.261 101.738 42.1472 100.116 39.457C98.493 36.7667 97.6817 33.7135 97.6817 30.2973C97.6817 26.9238 98.4716 23.892 100.052 21.2017C101.674 18.4688 103.873 16.355 106.649 14.8604C109.468 13.3231 112.606 12.5545 116.065 12.5545C119.438 12.5545 122.492 13.2804 125.225 14.7323C127.958 16.1842 130.093 18.2766 131.63 21.0096C133.21 23.6998 134 26.8384 134 30.4254ZM116.129 20.1128C113.866 20.1128 111.966 20.7533 110.428 22.0344C108.891 23.3155 107.952 25.0663 107.61 27.2868H124.584C124.243 25.109 123.303 23.3795 121.766 22.0985C120.229 20.7747 118.35 20.1128 116.129 20.1128Z" fill="#2C008F" fill-opacity="0.87"/>
</svg>
