<svg width="234" height="112" viewBox="0 0 234 112" fill="none" xmlns="http://www.w3.org/2000/svg">
<g filter="url(#filter0_dd)">
<rect x="25" y="23" width="184" height="62" rx="10" fill="white"/>
</g>
<path d="M102.723 62.7729H100.367V54.5579H91.407V62.7729H89.063V44.9999H91.407V52.6409H100.367V44.9999H102.723V62.7729ZM105.933 56.0469C105.933 54.7529 106.185 53.589 106.69 52.556C107.203 51.522 107.911 50.725 108.814 50.163C109.725 49.602 110.763 49.3209 111.927 49.3209C113.725 49.3209 115.178 49.943 116.285 51.189C117.4 52.434 117.957 54.0899 117.957 56.1569V56.3149C117.957 57.6009 117.709 58.7569 117.212 59.7819C116.724 60.7999 116.02 61.593 115.101 62.163C114.189 62.732 113.139 63.017 111.951 63.017C110.161 63.017 108.708 62.3949 107.593 61.1489C106.486 59.9039 105.933 58.2559 105.933 56.2059V56.0469ZM108.204 56.3149C108.204 57.7799 108.541 58.956 109.217 59.843C109.9 60.73 110.812 61.174 111.951 61.174C113.099 61.174 114.01 60.7259 114.686 59.8309C115.361 58.9279 115.699 57.6659 115.699 56.0469C115.699 54.5979 115.353 53.4259 114.661 52.5309C113.978 51.6279 113.066 51.176 111.927 51.176C110.812 51.176 109.913 51.62 109.229 52.507C108.545 53.394 108.204 54.6629 108.204 56.3149ZM122.913 49.5649L122.974 51.03C123.943 49.891 125.249 49.3209 126.893 49.3209C128.74 49.3209 129.997 50.0289 130.665 51.4449C131.104 50.8099 131.674 50.2969 132.374 49.9069C133.082 49.5159 133.916 49.3209 134.876 49.3209C137.773 49.3209 139.246 50.855 139.295 53.923V62.7729H137.037V54.0569C137.037 53.1129 136.821 52.4089 136.39 51.9449C135.958 51.4729 135.234 51.2369 134.217 51.2369C133.379 51.2369 132.683 51.49 132.129 51.994C131.576 52.491 131.255 53.1619 131.165 54.0079V62.7729H128.895V54.1179C128.895 52.1979 127.955 51.2369 126.075 51.2369C124.594 51.2369 123.58 51.868 123.035 53.129V62.7729H120.777V49.5649H122.913ZM148.194 63.017C146.403 63.017 144.947 62.431 143.824 61.259C142.701 60.079 142.139 58.505 142.139 56.535V56.1199C142.139 54.8099 142.387 53.6419 142.884 52.6169C143.388 51.5829 144.088 50.778 144.983 50.2C145.887 49.614 146.863 49.3209 147.913 49.3209C149.63 49.3209 150.965 49.8859 151.917 51.0179C152.869 52.1489 153.345 53.768 153.345 55.876V56.816H144.397C144.43 58.118 144.808 59.172 145.533 59.978C146.265 60.775 147.193 61.174 148.316 61.174C149.113 61.174 149.789 61.011 150.342 60.686C150.896 60.36 151.38 59.929 151.795 59.392L153.174 60.4659C152.068 62.1669 150.407 63.017 148.194 63.017ZM147.913 51.176C147.002 51.176 146.237 51.5099 145.618 52.1769C145 52.8359 144.617 53.7639 144.471 54.9609H151.087V54.79C151.022 53.642 150.713 52.7549 150.159 52.1279C149.606 51.4939 148.857 51.176 147.913 51.176Z" fill="black"/>
<defs>
<filter id="filter0_dd" x="0" y="0" width="234" height="112" filterUnits="userSpaceOnUse" color-interpolation-filters="sRGB">
<feFlood flood-opacity="0" result="BackgroundImageFix"/>
<feColorMatrix in="SourceAlpha" type="matrix" values="0 0 0 0 0 0 0 0 0 0 0 0 0 0 0 0 0 0 127 0"/>
<feOffset dy="2"/>
<feGaussianBlur stdDeviation="2.5"/>
<feColorMatrix type="matrix" values="0 0 0 0 0 0 0 0 0 0 0 0 0 0 0 0 0 0 0.1 0"/>
<feBlend mode="normal" in2="BackgroundImageFix" result="effect1_dropShadow"/>
<feColorMatrix in="SourceAlpha" type="matrix" values="0 0 0 0 0 0 0 0 0 0 0 0 0 0 0 0 0 0 127 0"/>
<feOffset dy="2"/>
<feGaussianBlur stdDeviation="12.5"/>
<feColorMatrix type="matrix" values="0 0 0 0 0 0 0 0 0 0 0 0 0 0 0 0 0 0 0.04 0"/>
<feBlend mode="normal" in2="effect1_dropShadow" result="effect2_dropShadow"/>
<feBlend mode="normal" in="SourceGraphic" in2="effect2_dropShadow" result="shape"/>
</filter>
</defs>
</svg>
