<svg width="234" height="112" viewBox="0 0 234 112" fill="none" xmlns="http://www.w3.org/2000/svg">
<g filter="url(#filter0_dd)">
<rect x="25" y="23" width="184" height="62" rx="10" fill="#F7DEDE"/>
</g>
<path d="M100.056 63H96.394V55.3828H89.2529V63H85.5908V45.2266H89.2529V52.4287H96.394V45.2266H100.056V63ZM102.485 56.2739C102.485 54.9637 102.738 53.7959 103.242 52.7705C103.747 51.7451 104.471 50.9517 105.415 50.3901C106.367 49.8286 107.47 49.5479 108.723 49.5479C110.505 49.5479 111.958 50.0931 113.081 51.1836C114.212 52.2741 114.843 53.7552 114.973 55.627L114.998 56.5303C114.998 58.5566 114.432 60.1842 113.301 61.4131C112.17 62.6338 110.652 63.2441 108.748 63.2441C106.843 63.2441 105.321 62.6338 104.182 61.4131C103.051 60.1924 102.485 58.5322 102.485 56.4326V56.2739ZM106.013 56.5303C106.013 57.7835 106.249 58.7438 106.721 59.4111C107.193 60.0703 107.869 60.3999 108.748 60.3999C109.602 60.3999 110.269 60.0744 110.75 59.4233C111.23 58.7642 111.47 57.7144 111.47 56.2739C111.47 55.0451 111.23 54.0929 110.75 53.4175C110.269 52.742 109.594 52.4043 108.723 52.4043C107.861 52.4043 107.193 52.742 106.721 53.4175C106.249 54.0848 106.013 55.1224 106.013 56.5303ZM120.479 49.792L120.588 51.269C121.524 50.1216 122.79 49.5479 124.385 49.5479C126.086 49.5479 127.253 50.2192 127.888 51.562C128.816 50.2192 130.138 49.5479 131.855 49.5479C133.288 49.5479 134.354 49.967 135.054 50.8052C135.754 51.6353 136.104 52.8885 136.104 54.5649V63H132.563V54.5771C132.563 53.8285 132.417 53.2832 132.124 52.9414C131.831 52.5915 131.314 52.4165 130.574 52.4165C129.516 52.4165 128.783 52.9211 128.376 53.9302L128.389 63H124.861V54.5894C124.861 53.8244 124.71 53.271 124.409 52.9292C124.108 52.5874 123.595 52.4165 122.871 52.4165C121.87 52.4165 121.146 52.8315 120.698 53.6616V63H117.17V49.792H120.479ZM144.905 63.2441C142.968 63.2441 141.389 62.6501 140.168 61.4619C138.956 60.2738 138.35 58.6909 138.35 56.7134V56.3716C138.35 55.0451 138.606 53.861 139.119 52.8193C139.631 51.7695 140.356 50.9639 141.292 50.4023C142.236 49.8327 143.31 49.5479 144.514 49.5479C146.321 49.5479 147.741 50.1175 148.774 51.2568C149.816 52.3962 150.337 54.0116 150.337 56.103V57.5435H141.926C142.04 58.4061 142.382 59.0978 142.952 59.6187C143.529 60.1395 144.258 60.3999 145.137 60.3999C146.496 60.3999 147.558 59.9076 148.323 58.9229L150.056 60.8638C149.527 61.6125 148.811 62.1984 147.908 62.6216C147.004 63.0366 146.003 63.2441 144.905 63.2441ZM144.502 52.4043C143.802 52.4043 143.232 52.6403 142.793 53.1123C142.362 53.5843 142.085 54.2598 141.963 55.1387H146.87V54.8579C146.854 54.0767 146.642 53.4744 146.235 53.0513C145.828 52.62 145.251 52.4043 144.502 52.4043Z" fill="white"/>
<defs>
<filter id="filter0_dd" x="0" y="0" width="234" height="112" filterUnits="userSpaceOnUse" color-interpolation-filters="sRGB">
<feFlood flood-opacity="0" result="BackgroundImageFix"/>
<feColorMatrix in="SourceAlpha" type="matrix" values="0 0 0 0 0 0 0 0 0 0 0 0 0 0 0 0 0 0 127 0"/>
<feOffset dy="2"/>
<feGaussianBlur stdDeviation="2.5"/>
<feColorMatrix type="matrix" values="0 0 0 0 0 0 0 0 0 0 0 0 0 0 0 0 0 0 0.1 0"/>
<feBlend mode="normal" in2="BackgroundImageFix" result="effect1_dropShadow"/>
<feColorMatrix in="SourceAlpha" type="matrix" values="0 0 0 0 0 0 0 0 0 0 0 0 0 0 0 0 0 0 127 0"/>
<feOffset dy="2"/>
<feGaussianBlur stdDeviation="12.5"/>
<feColorMatrix type="matrix" values="0 0 0 0 0 0 0 0 0 0 0 0 0 0 0 0 0 0 0.04 0"/>
<feBlend mode="normal" in2="effect1_dropShadow" result="effect2_dropShadow"/>
<feBlend mode="normal" in="SourceGraphic" in2="effect2_dropShadow" result="shape"/>
</filter>
</defs>
</svg>
