<svg width="234" height="112" viewBox="0 0 234 112" fill="none" xmlns="http://www.w3.org/2000/svg">
<g filter="url(#filter0_dd)">
<rect x="25" y="23" width="184" height="62" rx="10" fill="#F7DEDE"/>
</g>
<path d="M108.418 54.5161C108.418 56.1763 108.149 57.6208 107.612 58.8496C107.075 60.0703 106.331 61.0509 105.378 61.7915L108.333 64.1108L106.001 66.1738L102.217 63.1343C101.785 63.2075 101.338 63.2441 100.874 63.2441C99.401 63.2441 98.0868 62.8901 96.9312 62.1821C95.7756 61.4741 94.8804 60.465 94.2456 59.1548C93.6108 57.8364 93.2894 56.3228 93.2812 54.6138V53.7349C93.2812 51.9852 93.5946 50.4471 94.2212 49.1206C94.856 47.786 95.7471 46.7646 96.8945 46.0566C98.0501 45.3405 99.3685 44.9824 100.85 44.9824C102.331 44.9824 103.645 45.3405 104.792 46.0566C105.948 46.7646 106.839 47.786 107.466 49.1206C108.101 50.4471 108.418 51.9811 108.418 53.7227V54.5161ZM104.707 53.7104C104.707 51.8468 104.373 50.4308 103.706 49.4624C103.039 48.494 102.087 48.0098 100.85 48.0098C99.6208 48.0098 98.6727 48.4899 98.0054 49.4502C97.3381 50.4023 97.0003 51.8021 96.9922 53.6494V54.5161C96.9922 56.3309 97.3258 57.7388 97.9932 58.7397C98.6605 59.7407 99.6208 60.2412 100.874 60.2412C102.103 60.2412 103.047 59.7611 103.706 58.8008C104.365 57.8324 104.699 56.4245 104.707 54.5771V53.7104ZM110.383 58.2148C110.383 57.3929 110.611 56.632 111.067 55.9321C111.531 55.2323 112.377 54.4551 113.606 53.6006C113.077 52.8926 112.662 52.2293 112.361 51.6108C112.06 50.9842 111.909 50.3332 111.909 49.6577C111.909 48.2743 112.345 47.1512 113.215 46.2886C114.094 45.4178 115.274 44.9824 116.755 44.9824C118.082 44.9824 119.168 45.3771 120.015 46.1665C120.869 46.9559 121.296 47.9406 121.296 49.1206C121.296 50.5366 120.58 51.7858 119.148 52.8682L117.781 53.8569L120.845 57.4214C121.325 56.4774 121.565 55.4357 121.565 54.2964H124.568C124.568 56.6076 124.035 58.4793 122.969 59.9116L125.63 63H121.626L120.71 61.9502C119.4 62.8128 117.895 63.2441 116.194 63.2441C114.436 63.2441 113.028 62.7843 111.97 61.8647C110.912 60.937 110.383 59.7204 110.383 58.2148ZM116.365 60.4121C117.211 60.4121 118.013 60.1761 118.77 59.7041L115.266 55.6514L115.01 55.8345C114.285 56.453 113.923 57.1813 113.923 58.0195C113.923 58.7275 114.147 59.3053 114.595 59.7529C115.05 60.1924 115.64 60.4121 116.365 60.4121ZM115.071 49.6089C115.071 50.2192 115.429 50.9883 116.145 51.916L117.085 51.2935C117.565 50.9842 117.895 50.6831 118.074 50.3901C118.261 50.0972 118.354 49.7472 118.354 49.3403C118.354 48.9334 118.204 48.5794 117.903 48.2783C117.602 47.9772 117.215 47.8267 116.743 47.8267C116.239 47.8267 115.832 47.9894 115.522 48.3149C115.221 48.6405 115.071 49.0718 115.071 49.6089ZM137.544 59.3379H131.123L129.902 63H126.008L132.625 45.2266H136.018L142.671 63H138.777L137.544 59.3379ZM132.112 56.3716H136.555L134.321 49.7188L132.112 56.3716Z" fill="white"/>
<defs>
<filter id="filter0_dd" x="0" y="0" width="234" height="112" filterUnits="userSpaceOnUse" color-interpolation-filters="sRGB">
<feFlood flood-opacity="0" result="BackgroundImageFix"/>
<feColorMatrix in="SourceAlpha" type="matrix" values="0 0 0 0 0 0 0 0 0 0 0 0 0 0 0 0 0 0 127 0"/>
<feOffset dy="2"/>
<feGaussianBlur stdDeviation="2.5"/>
<feColorMatrix type="matrix" values="0 0 0 0 0 0 0 0 0 0 0 0 0 0 0 0 0 0 0.1 0"/>
<feBlend mode="normal" in2="BackgroundImageFix" result="effect1_dropShadow"/>
<feColorMatrix in="SourceAlpha" type="matrix" values="0 0 0 0 0 0 0 0 0 0 0 0 0 0 0 0 0 0 127 0"/>
<feOffset dy="2"/>
<feGaussianBlur stdDeviation="12.5"/>
<feColorMatrix type="matrix" values="0 0 0 0 0 0 0 0 0 0 0 0 0 0 0 0 0 0 0.04 0"/>
<feBlend mode="normal" in2="effect1_dropShadow" result="effect2_dropShadow"/>
<feBlend mode="normal" in="SourceGraphic" in2="effect2_dropShadow" result="shape"/>
</filter>
</defs>
</svg>
