<svg width="234" height="112" viewBox="0 0 234 112" fill="none" xmlns="http://www.w3.org/2000/svg">
<g filter="url(#filter0_dd)">
<rect x="25" y="23" width="184" height="62" rx="10" fill="white"/>
</g>
<path d="M107.113 54.687C107.113 56.4041 106.841 57.8853 106.295 59.1304C105.75 60.3674 104.985 61.3358 104 62.0356L107.174 64.5259L105.575 66.0029L101.828 63.0244C101.242 63.1709 100.623 63.2441 99.9722 63.2441C98.5724 63.2441 97.3314 62.9023 96.249 62.2188C95.1667 61.527 94.3244 60.5464 93.7222 59.2769C93.1281 57.9992 92.8229 56.5221 92.8066 54.8457V53.564C92.8066 51.855 93.1037 50.3454 93.6978 49.0352C94.2918 47.7249 95.13 46.724 96.2124 46.0322C97.3029 45.3324 98.548 44.9824 99.9478 44.9824C101.38 44.9824 102.637 45.3283 103.72 46.02C104.81 46.7118 105.648 47.7087 106.234 49.0107C106.82 50.3047 107.113 51.8184 107.113 53.5518V54.687ZM104.77 53.5396C104.77 51.4481 104.35 49.8368 103.512 48.7056C102.682 47.5662 101.494 46.9966 99.9478 46.9966C98.4748 46.9966 97.311 47.5622 96.4565 48.6934C95.6102 49.8164 95.1748 51.3789 95.1504 53.3809V54.687C95.1504 56.7215 95.5736 58.3247 96.4199 59.4966C97.2744 60.6685 98.4585 61.2544 99.9722 61.2544C101.486 61.2544 102.658 60.7051 103.488 59.6064C104.318 58.4997 104.745 56.9168 104.77 54.8579V53.5396ZM109.896 58.2271C109.896 57.3726 110.132 56.5872 110.604 55.8711C111.085 55.1549 111.996 54.3208 113.339 53.3687C112.549 52.4084 112.021 51.6353 111.752 51.0493C111.483 50.4634 111.349 49.8815 111.349 49.3037C111.349 47.9528 111.748 46.8949 112.545 46.1299C113.343 45.3649 114.425 44.9824 115.792 44.9824C117.013 44.9824 118.022 45.3405 118.82 46.0566C119.617 46.7646 120.016 47.6598 120.016 48.7422C120.016 49.4583 119.833 50.1216 119.467 50.7319C119.109 51.3341 118.478 51.9689 117.575 52.6362L116.269 53.6006L120.224 58.3247C120.777 57.2668 121.054 56.0908 121.054 54.7969H123.092C123.092 56.8721 122.592 58.5933 121.591 59.9604L124.13 63H121.42L120.236 61.5962C119.634 62.1333 118.926 62.5443 118.112 62.8291C117.306 63.1058 116.484 63.2441 115.646 63.2441C113.913 63.2441 112.521 62.7843 111.471 61.8647C110.421 60.9451 109.896 59.7326 109.896 58.2271ZM115.646 61.4009C116.842 61.4009 117.937 60.9451 118.93 60.0337L114.596 54.8457L114.193 55.1387C112.834 56.1396 112.155 57.1691 112.155 58.2271C112.155 59.1873 112.464 59.9564 113.083 60.5342C113.709 61.112 114.564 61.4009 115.646 61.4009ZM113.607 49.2305C113.607 50.0117 114.088 50.9883 115.048 52.1602L116.488 51.147C117.042 50.7563 117.42 50.3861 117.624 50.0361C117.827 49.6781 117.929 49.2467 117.929 48.7422C117.929 48.1969 117.725 47.7453 117.318 47.3872C116.911 47.021 116.399 46.8379 115.78 46.8379C115.113 46.8379 114.584 47.0658 114.193 47.5215C113.803 47.9691 113.607 48.5387 113.607 49.2305ZM136.093 58.3613H128.646L126.974 63H124.557L131.344 45.2266H133.395L140.194 63H137.79L136.093 58.3613ZM129.354 56.4326H135.397L132.37 48.1196L129.354 56.4326Z" fill="black"/>
<defs>
<filter id="filter0_dd" x="0" y="0" width="234" height="112" filterUnits="userSpaceOnUse" color-interpolation-filters="sRGB">
<feFlood flood-opacity="0" result="BackgroundImageFix"/>
<feColorMatrix in="SourceAlpha" type="matrix" values="0 0 0 0 0 0 0 0 0 0 0 0 0 0 0 0 0 0 127 0"/>
<feOffset dy="2"/>
<feGaussianBlur stdDeviation="2.5"/>
<feColorMatrix type="matrix" values="0 0 0 0 0 0 0 0 0 0 0 0 0 0 0 0 0 0 0.1 0"/>
<feBlend mode="normal" in2="BackgroundImageFix" result="effect1_dropShadow"/>
<feColorMatrix in="SourceAlpha" type="matrix" values="0 0 0 0 0 0 0 0 0 0 0 0 0 0 0 0 0 0 127 0"/>
<feOffset dy="2"/>
<feGaussianBlur stdDeviation="12.5"/>
<feColorMatrix type="matrix" values="0 0 0 0 0 0 0 0 0 0 0 0 0 0 0 0 0 0 0.04 0"/>
<feBlend mode="normal" in2="effect1_dropShadow" result="effect2_dropShadow"/>
<feBlend mode="normal" in="SourceGraphic" in2="effect2_dropShadow" result="shape"/>
</filter>
</defs>
</svg>
