<svg width="154" height="23" viewBox="0 0 154 23" fill="none" xmlns="http://www.w3.org/2000/svg">
<path d="M7.512 19.288C6.184 19.288 4.896 19.112 3.648 18.76C2.416 18.392 1.424 17.92 0.672 17.344L1.992 14.416C2.712 14.944 3.568 15.368 4.56 15.688C5.552 16.008 6.544 16.168 7.536 16.168C8.64 16.168 9.456 16.008 9.984 15.688C10.512 15.352 10.776 14.912 10.776 14.368C10.776 13.968 10.616 13.64 10.296 13.384C9.992 13.112 9.592 12.896 9.096 12.736C8.616 12.576 7.96 12.4 7.128 12.208C5.848 11.904 4.8 11.6 3.984 11.296C3.168 10.992 2.464 10.504 1.872 9.832C1.296 9.16 1.008 8.264 1.008 7.144C1.008 6.168 1.272 5.288 1.8 4.504C2.328 3.704 3.12 3.072 4.176 2.608C5.248 2.144 6.552 1.912 8.088 1.912C9.16 1.912 10.208 2.04 11.232 2.296C12.256 2.552 13.152 2.92 13.92 3.4L12.72 6.352C11.168 5.472 9.616 5.032 8.064 5.032C6.976 5.032 6.168 5.208 5.64 5.56C5.128 5.912 4.872 6.376 4.872 6.952C4.872 7.528 5.168 7.96 5.76 8.248C6.368 8.52 7.288 8.792 8.52 9.064C9.8 9.368 10.848 9.672 11.664 9.976C12.48 10.28 13.176 10.76 13.752 11.416C14.344 12.072 14.64 12.96 14.64 14.08C14.64 15.04 14.368 15.92 13.824 16.72C13.296 17.504 12.496 18.128 11.424 18.592C10.352 19.056 9.048 19.288 7.512 19.288ZM22.2407 5.896C24.2407 5.896 25.7767 6.376 26.8487 7.336C27.9207 8.28 28.4567 9.712 28.4567 11.632V19H24.9527V17.392C24.2487 18.592 22.9367 19.192 21.0167 19.192C20.0247 19.192 19.1607 19.024 18.4247 18.688C17.7047 18.352 17.1527 17.888 16.7687 17.296C16.3847 16.704 16.1927 16.032 16.1927 15.28C16.1927 14.08 16.6407 13.136 17.5367 12.448C18.4487 11.76 19.8487 11.416 21.7367 11.416H24.7127C24.7127 10.6 24.4647 9.976 23.9687 9.544C23.4727 9.096 22.7287 8.872 21.7367 8.872C21.0487 8.872 20.3687 8.984 19.6967 9.208C19.0407 9.416 18.4807 9.704 18.0167 10.072L16.6727 7.456C17.3767 6.96 18.2167 6.576 19.1927 6.304C20.1847 6.032 21.2007 5.896 22.2407 5.896ZM21.9527 16.672C22.5927 16.672 23.1607 16.528 23.6567 16.24C24.1527 15.936 24.5047 15.496 24.7127 14.92V13.6H22.1447C20.6087 13.6 19.8407 14.104 19.8407 15.112C19.8407 15.592 20.0247 15.976 20.3927 16.264C20.7767 16.536 21.2967 16.672 21.9527 16.672ZM35.4212 7.792C35.8692 7.168 36.4692 6.696 37.2212 6.376C37.9892 6.056 38.8692 5.896 39.8612 5.896V9.352C39.4452 9.32 39.1652 9.304 39.0212 9.304C37.9492 9.304 37.1092 9.608 36.5012 10.216C35.8932 10.808 35.5892 11.704 35.5892 12.904V19H31.8452V6.088H35.4212V7.792ZM47.2251 5.896C49.2251 5.896 50.7611 6.376 51.8331 7.336C52.9051 8.28 53.4411 9.712 53.4411 11.632V19H49.9371V17.392C49.2331 18.592 47.9211 19.192 46.0011 19.192C45.0091 19.192 44.1451 19.024 43.4091 18.688C42.6891 18.352 42.1371 17.888 41.7531 17.296C41.3691 16.704 41.1771 16.032 41.1771 15.28C41.1771 14.08 41.6251 13.136 42.5211 12.448C43.4331 11.76 44.8331 11.416 46.7211 11.416H49.6971C49.6971 10.6 49.4491 9.976 48.9531 9.544C48.4571 9.096 47.7131 8.872 46.7211 8.872C46.0331 8.872 45.3531 8.984 44.6811 9.208C44.0251 9.416 43.4651 9.704 43.0011 10.072L41.6571 7.456C42.3611 6.96 43.2011 6.576 44.1771 6.304C45.1691 6.032 46.1851 5.896 47.2251 5.896ZM46.9371 16.672C47.5771 16.672 48.1451 16.528 48.6411 16.24C49.1371 15.936 49.4891 15.496 49.6971 14.92V13.6H47.1291C45.5931 13.6 44.8251 14.104 44.8251 15.112C44.8251 15.592 45.0091 15.976 45.3771 16.264C45.7611 16.536 46.2811 16.672 46.9371 16.672ZM64.6776 5.896C66.2776 5.896 67.5656 6.376 68.5416 7.336C69.5336 8.296 70.0296 9.72 70.0296 11.608V19H66.2856V12.184C66.2856 11.16 66.0616 10.4 65.6136 9.904C65.1656 9.392 64.5176 9.136 63.6696 9.136C62.7256 9.136 61.9736 9.432 61.4136 10.024C60.8536 10.6 60.5736 11.464 60.5736 12.616V19H56.8296V1.192H60.5736V7.432C61.0696 6.936 61.6696 6.56 62.3736 6.304C63.0776 6.032 63.8456 5.896 64.6776 5.896ZM86.0042 19.288C84.6762 19.288 83.3882 19.112 82.1402 18.76C80.9082 18.392 79.9162 17.92 79.1642 17.344L80.4842 14.416C81.2042 14.944 82.0602 15.368 83.0522 15.688C84.0442 16.008 85.0362 16.168 86.0282 16.168C87.1322 16.168 87.9482 16.008 88.4762 15.688C89.0042 15.352 89.2682 14.912 89.2682 14.368C89.2682 13.968 89.1082 13.64 88.7882 13.384C88.4842 13.112 88.0842 12.896 87.5882 12.736C87.1082 12.576 86.4522 12.4 85.6202 12.208C84.3402 11.904 83.2922 11.6 82.4762 11.296C81.6602 10.992 80.9562 10.504 80.3642 9.832C79.7882 9.16 79.5002 8.264 79.5002 7.144C79.5002 6.168 79.7642 5.288 80.2922 4.504C80.8202 3.704 81.6122 3.072 82.6682 2.608C83.7402 2.144 85.0442 1.912 86.5802 1.912C87.6522 1.912 88.7002 2.04 89.7242 2.296C90.7482 2.552 91.6442 2.92 92.4122 3.4L91.2122 6.352C89.6602 5.472 88.1082 5.032 86.5562 5.032C85.4682 5.032 84.6602 5.208 84.1322 5.56C83.6202 5.912 83.3642 6.376 83.3642 6.952C83.3642 7.528 83.6602 7.96 84.2522 8.248C84.8602 8.52 85.7802 8.792 87.0122 9.064C88.2922 9.368 89.3402 9.672 90.1562 9.976C90.9722 10.28 91.6682 10.76 92.2442 11.416C92.8362 12.072 93.1322 12.96 93.1322 14.08C93.1322 15.04 92.8602 15.92 92.3162 16.72C91.7882 17.504 90.9882 18.128 89.9162 18.592C88.8442 19.056 87.5402 19.288 86.0042 19.288ZM112.061 5.896C113.677 5.896 114.957 6.376 115.901 7.336C116.861 8.28 117.341 9.704 117.341 11.608V19H113.597V12.184C113.597 11.16 113.381 10.4 112.949 9.904C112.533 9.392 111.933 9.136 111.149 9.136C110.269 9.136 109.573 9.424 109.061 10C108.549 10.56 108.293 11.4 108.293 12.52V19H104.549V12.184C104.549 10.152 103.733 9.136 102.101 9.136C101.237 9.136 100.549 9.424 100.037 10C99.5249 10.56 99.2689 11.4 99.2689 12.52V19H95.5249V6.088H99.1009V7.576C99.5809 7.032 100.165 6.616 100.853 6.328C101.557 6.04 102.325 5.896 103.157 5.896C104.069 5.896 104.893 6.08 105.629 6.448C106.365 6.8 106.957 7.32 107.405 8.008C107.933 7.336 108.597 6.816 109.397 6.448C110.213 6.08 111.101 5.896 112.061 5.896ZM120.697 6.088H124.441V19H120.697V6.088ZM122.569 4.288C121.881 4.288 121.321 4.088 120.889 3.688C120.457 3.288 120.241 2.792 120.241 2.2C120.241 1.608 120.457 1.112 120.889 0.711999C121.321 0.311999 121.881 0.111999 122.569 0.111999C123.257 0.111999 123.817 0.303999 124.249 0.688C124.681 1.072 124.897 1.552 124.897 2.128C124.897 2.752 124.681 3.272 124.249 3.688C123.817 4.088 123.257 4.288 122.569 4.288ZM136.244 18.376C135.876 18.648 135.42 18.856 134.876 19C134.348 19.128 133.788 19.192 133.196 19.192C131.66 19.192 130.468 18.8 129.62 18.016C128.788 17.232 128.372 16.08 128.372 14.56V9.256H126.38V6.376H128.372V3.232H132.116V6.376H135.332V9.256H132.116V14.512C132.116 15.056 132.252 15.48 132.523 15.784C132.812 16.072 133.212 16.216 133.724 16.216C134.316 16.216 134.82 16.056 135.236 15.736L136.244 18.376ZM146.193 5.896C147.793 5.896 149.081 6.376 150.057 7.336C151.049 8.296 151.545 9.72 151.545 11.608V19H147.801V12.184C147.801 11.16 147.577 10.4 147.129 9.904C146.681 9.392 146.033 9.136 145.185 9.136C144.241 9.136 143.489 9.432 142.929 10.024C142.369 10.6 142.089 11.464 142.089 12.616V19H138.345V1.192H142.089V7.432C142.585 6.936 143.185 6.56 143.889 6.304C144.593 6.032 145.361 5.896 146.193 5.896Z" fill="black"/>
<path d="M0 21.4H153.201V22.6H0V21.4Z" fill="black"/>
</svg>
