<svg width="1223" height="37" viewBox="0 0 1223 37" fill="none" xmlns="http://www.w3.org/2000/svg">
<path d="M11.85 29.3C8.95 29.3 6.69 28.49 5.07 26.87C3.45 25.23 2.64 22.89 2.64 19.85V8H6.54V19.7C6.54 23.82 8.32 25.88 11.88 25.88C15.42 25.88 17.19 23.82 17.19 19.7V8H21.03V19.85C21.03 22.89 20.22 25.23 18.6 26.87C17 28.49 14.75 29.3 11.85 29.3ZM35.2219 12.8C37.2419 12.8 38.8619 13.39 40.0819 14.57C41.3019 15.75 41.9119 17.5 41.9119 19.82V29H38.1619V20.3C38.1619 18.9 37.8319 17.85 37.1719 17.15C36.5119 16.43 35.5719 16.07 34.3519 16.07C32.9719 16.07 31.8819 16.49 31.0819 17.33C30.2819 18.15 29.8819 19.34 29.8819 20.9V29H26.1319V12.98H29.7019V15.05C30.3219 14.31 31.1019 13.75 32.0419 13.37C32.9819 12.99 34.0419 12.8 35.2219 12.8ZM46.669 12.98H50.419V29H46.669V12.98ZM48.559 10.34C47.879 10.34 47.309 10.13 46.849 9.71C46.389 9.27 46.159 8.73 46.159 8.09C46.159 7.45 46.389 6.92 46.849 6.5C47.309 6.06 47.879 5.84 48.559 5.84C49.239 5.84 49.809 6.05 50.269 6.47C50.729 6.87 50.959 7.38 50.959 8C50.959 8.66 50.729 9.22 50.269 9.68C49.829 10.12 49.259 10.34 48.559 10.34ZM70.3409 12.98L63.4709 29H59.6009L52.7309 12.98H56.6309L61.6109 24.86L66.7409 12.98H70.3409ZM87.3052 21.08C87.3052 21.34 87.2852 21.71 87.2452 22.19H74.6752C74.8952 23.37 75.4652 24.31 76.3852 25.01C77.3252 25.69 78.4852 26.03 79.8652 26.03C81.6252 26.03 83.0752 25.45 84.2152 24.29L86.2252 26.6C85.5052 27.46 84.5952 28.11 83.4952 28.55C82.3952 28.99 81.1552 29.21 79.7752 29.21C78.0152 29.21 76.4652 28.86 75.1252 28.16C73.7852 27.46 72.7452 26.49 72.0052 25.25C71.2852 23.99 70.9252 22.57 70.9252 20.99C70.9252 19.43 71.2752 18.03 71.9752 16.79C72.6952 15.53 73.6852 14.55 74.9452 13.85C76.2052 13.15 77.6252 12.8 79.2052 12.8C80.7652 12.8 82.1552 13.15 83.3752 13.85C84.6152 14.53 85.5752 15.5 86.2552 16.76C86.9552 18 87.3052 19.44 87.3052 21.08ZM79.2052 15.8C78.0052 15.8 76.9852 16.16 76.1452 16.88C75.3252 17.58 74.8252 18.52 74.6452 19.7H83.7352C83.5752 18.54 83.0852 17.6 82.2652 16.88C81.4452 16.16 80.4252 15.8 79.2052 15.8ZM94.4773 15.32C95.5573 13.64 97.4573 12.8 100.177 12.8V16.37C99.8573 16.31 99.5673 16.28 99.3073 16.28C97.8473 16.28 96.7073 16.71 95.8873 17.57C95.0673 18.41 94.6573 19.63 94.6573 21.23V29H90.9073V12.98H94.4773V15.32ZM108.367 29.21C107.067 29.21 105.797 29.04 104.557 28.7C103.317 28.36 102.327 27.93 101.587 27.41L103.027 24.56C103.747 25.04 104.607 25.43 105.607 25.73C106.627 26.01 107.627 26.15 108.607 26.15C110.847 26.15 111.967 25.56 111.967 24.38C111.967 23.82 111.677 23.43 111.097 23.21C110.537 22.99 109.627 22.78 108.367 22.58C107.047 22.38 105.967 22.15 105.127 21.89C104.307 21.63 103.587 21.18 102.967 20.54C102.367 19.88 102.067 18.97 102.067 17.81C102.067 16.29 102.697 15.08 103.957 14.18C105.237 13.26 106.957 12.8 109.117 12.8C110.217 12.8 111.317 12.93 112.417 13.19C113.517 13.43 114.417 13.76 115.117 14.18L113.677 17.03C112.317 16.23 110.787 15.83 109.087 15.83C107.987 15.83 107.147 16 106.567 16.34C106.007 16.66 105.727 17.09 105.727 17.63C105.727 18.23 106.027 18.66 106.627 18.92C107.247 19.16 108.197 19.39 109.477 19.61C110.757 19.81 111.807 20.04 112.627 20.3C113.447 20.56 114.147 21 114.727 21.62C115.327 22.24 115.627 23.12 115.627 24.26C115.627 25.76 114.977 26.96 113.677 27.86C112.377 28.76 110.607 29.21 108.367 29.21ZM118.856 12.98H122.606V29H118.856V12.98ZM120.746 10.34C120.066 10.34 119.496 10.13 119.036 9.71C118.576 9.27 118.346 8.73 118.346 8.09C118.346 7.45 118.576 6.92 119.036 6.5C119.496 6.06 120.066 5.84 120.746 5.84C121.426 5.84 121.996 6.05 122.456 6.47C122.916 6.87 123.146 7.38 123.146 8C123.146 8.66 122.916 9.22 122.456 9.68C122.016 10.12 121.446 10.34 120.746 10.34ZM137.158 28.13C136.718 28.49 136.178 28.76 135.538 28.94C134.918 29.12 134.258 29.21 133.558 29.21C131.798 29.21 130.438 28.75 129.478 27.83C128.518 26.91 128.038 25.57 128.038 23.81V16.1H125.398V13.1H128.038V9.44H131.788V13.1H136.078V16.1H131.788V23.72C131.788 24.5 131.978 25.1 132.358 25.52C132.738 25.92 133.288 26.12 134.008 26.12C134.848 26.12 135.548 25.9 136.108 25.46L137.158 28.13ZM154.95 12.98L147.45 30.29C146.75 32.03 145.9 33.25 144.9 33.95C143.9 34.67 142.69 35.03 141.27 35.03C140.47 35.03 139.68 34.9 138.9 34.64C138.12 34.38 137.48 34.02 136.98 33.56L138.48 30.8C138.84 31.14 139.26 31.41 139.74 31.61C140.24 31.81 140.74 31.91 141.24 31.91C141.9 31.91 142.44 31.74 142.86 31.4C143.3 31.06 143.7 30.49 144.06 29.69L144.33 29.06L137.34 12.98H141.24L146.28 24.83L151.35 12.98H154.95ZM162.838 3.74H166.198L156.298 32H152.938L162.838 3.74ZM176.925 29.3C174.805 29.3 172.885 28.84 171.165 27.92C169.465 26.98 168.125 25.69 167.145 24.05C166.185 22.41 165.705 20.56 165.705 18.5C165.705 16.44 166.195 14.59 167.175 12.95C168.155 11.31 169.495 10.03 171.195 9.11C172.915 8.17 174.835 7.7 176.955 7.7C178.675 7.7 180.245 8 181.665 8.6C183.085 9.2 184.285 10.07 185.265 11.21L182.745 13.58C181.225 11.94 179.355 11.12 177.135 11.12C175.695 11.12 174.405 11.44 173.265 12.08C172.125 12.7 171.235 13.57 170.595 14.69C169.955 15.81 169.635 17.08 169.635 18.5C169.635 19.92 169.955 21.19 170.595 22.31C171.235 23.43 172.125 24.31 173.265 24.95C174.405 25.57 175.695 25.88 177.135 25.88C179.355 25.88 181.225 25.05 182.745 23.39L185.265 25.79C184.285 26.93 183.075 27.8 181.635 28.4C180.215 29 178.645 29.3 176.925 29.3ZM195.256 29.21C193.636 29.21 192.176 28.86 190.876 28.16C189.576 27.46 188.556 26.49 187.816 25.25C187.096 23.99 186.736 22.57 186.736 20.99C186.736 19.41 187.096 18 187.816 16.76C188.556 15.52 189.576 14.55 190.876 13.85C192.176 13.15 193.636 12.8 195.256 12.8C196.896 12.8 198.366 13.15 199.666 13.85C200.966 14.55 201.976 15.52 202.696 16.76C203.436 18 203.806 19.41 203.806 20.99C203.806 22.57 203.436 23.99 202.696 25.25C201.976 26.49 200.966 27.46 199.666 28.16C198.366 28.86 196.896 29.21 195.256 29.21ZM195.256 26C196.636 26 197.776 25.54 198.676 24.62C199.576 23.7 200.026 22.49 200.026 20.99C200.026 19.49 199.576 18.28 198.676 17.36C197.776 16.44 196.636 15.98 195.256 15.98C193.876 15.98 192.736 16.44 191.836 17.36C190.956 18.28 190.516 19.49 190.516 20.99C190.516 22.49 190.956 23.7 191.836 24.62C192.736 25.54 193.876 26 195.256 26ZM207.392 6.74H211.142V29H207.392V6.74ZM216.064 6.74H219.814V29H216.064V6.74ZM239.795 21.08C239.795 21.34 239.775 21.71 239.735 22.19H227.165C227.385 23.37 227.955 24.31 228.875 25.01C229.815 25.69 230.975 26.03 232.355 26.03C234.115 26.03 235.565 25.45 236.705 24.29L238.715 26.6C237.995 27.46 237.085 28.11 235.985 28.55C234.885 28.99 233.645 29.21 232.265 29.21C230.505 29.21 228.955 28.86 227.615 28.16C226.275 27.46 225.235 26.49 224.495 25.25C223.775 23.99 223.415 22.57 223.415 20.99C223.415 19.43 223.765 18.03 224.465 16.79C225.185 15.53 226.175 14.55 227.435 13.85C228.695 13.15 230.115 12.8 231.695 12.8C233.255 12.8 234.645 13.15 235.865 13.85C237.105 14.53 238.065 15.5 238.745 16.76C239.445 18 239.795 19.44 239.795 21.08ZM231.695 15.8C230.495 15.8 229.475 16.16 228.635 16.88C227.815 17.58 227.315 18.52 227.135 19.7H236.225C236.065 18.54 235.575 17.6 234.755 16.88C233.935 16.16 232.915 15.8 231.695 15.8ZM259.298 12.98V26.57C259.298 32.21 256.418 35.03 250.658 35.03C249.118 35.03 247.658 34.83 246.278 34.43C244.898 34.05 243.758 33.49 242.858 32.75L244.538 29.93C245.238 30.51 246.118 30.97 247.178 31.31C248.258 31.67 249.348 31.85 250.448 31.85C252.208 31.85 253.498 31.45 254.318 30.65C255.138 29.85 255.548 28.63 255.548 26.99V26.15C254.908 26.85 254.128 27.38 253.208 27.74C252.288 28.1 251.278 28.28 250.178 28.28C248.658 28.28 247.278 27.96 246.038 27.32C244.818 26.66 243.848 25.74 243.128 24.56C242.428 23.38 242.078 22.03 242.078 20.51C242.078 18.99 242.428 17.65 243.128 16.49C243.848 15.31 244.818 14.4 246.038 13.76C247.278 13.12 248.658 12.8 250.178 12.8C251.338 12.8 252.388 12.99 253.328 13.37C254.288 13.75 255.088 14.33 255.728 15.11V12.98H259.298ZM250.748 25.1C252.168 25.1 253.328 24.68 254.228 23.84C255.148 22.98 255.608 21.87 255.608 20.51C255.608 19.17 255.148 18.08 254.228 17.24C253.328 16.4 252.168 15.98 250.748 15.98C249.308 15.98 248.128 16.4 247.208 17.24C246.308 18.08 245.858 19.17 245.858 20.51C245.858 21.87 246.308 22.98 247.208 23.84C248.128 24.68 249.308 25.1 250.748 25.1ZM279.288 21.08C279.288 21.34 279.268 21.71 279.228 22.19H266.658C266.878 23.37 267.448 24.31 268.368 25.01C269.308 25.69 270.468 26.03 271.848 26.03C273.608 26.03 275.058 25.45 276.198 24.29L278.208 26.6C277.488 27.46 276.578 28.11 275.478 28.55C274.378 28.99 273.138 29.21 271.758 29.21C269.998 29.21 268.448 28.86 267.108 28.16C265.768 27.46 264.728 26.49 263.988 25.25C263.268 23.99 262.908 22.57 262.908 20.99C262.908 19.43 263.258 18.03 263.958 16.79C264.678 15.53 265.668 14.55 266.928 13.85C268.188 13.15 269.608 12.8 271.188 12.8C272.748 12.8 274.138 13.15 275.358 13.85C276.598 14.53 277.558 15.5 278.238 16.76C278.938 18 279.288 19.44 279.288 21.08ZM271.188 15.8C269.988 15.8 268.968 16.16 268.128 16.88C267.308 17.58 266.808 18.52 266.628 19.7H275.718C275.558 18.54 275.068 17.6 274.248 16.88C273.428 16.16 272.408 15.8 271.188 15.8Z" fill="black"/>
<path d="M1108.64 20.32L1104.06 31H1101.48L1096.9 20.32H1099.5L1102.82 28.24L1106.24 20.32H1108.64ZM1110.2 20.32H1112.7V31H1110.2V20.32ZM1111.46 18.56C1111.01 18.56 1110.63 18.42 1110.32 18.14C1110.02 17.8467 1109.86 17.4867 1109.86 17.06C1109.86 16.6333 1110.02 16.28 1110.32 16C1110.63 15.7067 1111.01 15.56 1111.46 15.56C1111.92 15.56 1112.3 15.7 1112.6 15.98C1112.91 16.2467 1113.06 16.5867 1113.06 17C1113.06 17.44 1112.91 17.8133 1112.6 18.12C1112.31 18.4133 1111.93 18.56 1111.46 18.56ZM1126.02 25.72C1126.02 25.8933 1126.01 26.14 1125.98 26.46H1117.6C1117.75 27.2467 1118.13 27.8733 1118.74 28.34C1119.37 28.7933 1120.14 29.02 1121.06 29.02C1122.24 29.02 1123.2 28.6333 1123.96 27.86L1125.3 29.4C1124.82 29.9733 1124.22 30.4067 1123.48 30.7C1122.75 30.9933 1121.92 31.14 1121 31.14C1119.83 31.14 1118.8 30.9067 1117.9 30.44C1117.01 29.9733 1116.32 29.3267 1115.82 28.5C1115.34 27.66 1115.1 26.7133 1115.1 25.66C1115.1 24.62 1115.34 23.6867 1115.8 22.86C1116.28 22.02 1116.94 21.3667 1117.78 20.9C1118.62 20.4333 1119.57 20.2 1120.62 20.2C1121.66 20.2 1122.59 20.4333 1123.4 20.9C1124.23 21.3533 1124.87 22 1125.32 22.84C1125.79 23.6667 1126.02 24.6267 1126.02 25.72ZM1120.62 22.2C1119.82 22.2 1119.14 22.44 1118.58 22.92C1118.04 23.3867 1117.7 24.0133 1117.58 24.8H1123.64C1123.54 24.0267 1123.21 23.4 1122.66 22.92C1122.12 22.44 1121.44 22.2 1120.62 22.2ZM1144.89 20.32L1140.95 31H1138.55L1135.79 23.64L1132.99 31H1130.59L1126.67 20.32H1129.03L1131.85 28.2L1134.79 20.32H1136.89L1139.77 28.24L1142.67 20.32H1144.89ZM1165.62 20.2C1166.96 20.2 1168.03 20.5933 1168.82 21.38C1169.6 22.1533 1170 23.32 1170 24.88V31H1167.5V25.2C1167.5 24.2667 1167.29 23.5667 1166.88 23.1C1166.46 22.62 1165.87 22.38 1165.1 22.38C1164.26 22.38 1163.58 22.66 1163.08 23.22C1162.57 23.7667 1162.32 24.5533 1162.32 25.58V31H1159.82V25.2C1159.82 24.2667 1159.61 23.5667 1159.2 23.1C1158.78 22.62 1158.19 22.38 1157.42 22.38C1156.56 22.38 1155.88 22.6533 1155.38 23.2C1154.88 23.7467 1154.64 24.54 1154.64 25.58V31H1152.14V20.32H1154.52V21.68C1154.92 21.2 1155.42 20.8333 1156.02 20.58C1156.62 20.3267 1157.28 20.2 1158.02 20.2C1158.82 20.2 1159.52 20.3533 1160.14 20.66C1160.76 20.9533 1161.26 21.3933 1161.62 21.98C1162.06 21.42 1162.62 20.9867 1163.32 20.68C1164.01 20.36 1164.78 20.2 1165.62 20.2ZM1178.09 31.14C1177.01 31.14 1176.04 30.9067 1175.17 30.44C1174.3 29.9733 1173.62 29.3267 1173.13 28.5C1172.65 27.66 1172.41 26.7133 1172.41 25.66C1172.41 24.6067 1172.65 23.6667 1173.13 22.84C1173.62 22.0133 1174.3 21.3667 1175.17 20.9C1176.04 20.4333 1177.01 20.2 1178.09 20.2C1179.18 20.2 1180.16 20.4333 1181.03 20.9C1181.9 21.3667 1182.57 22.0133 1183.05 22.84C1183.54 23.6667 1183.79 24.6067 1183.79 25.66C1183.79 26.7133 1183.54 27.66 1183.05 28.5C1182.57 29.3267 1181.9 29.9733 1181.03 30.44C1180.16 30.9067 1179.18 31.14 1178.09 31.14ZM1178.09 29C1179.01 29 1179.77 28.6933 1180.37 28.08C1180.97 27.4667 1181.27 26.66 1181.27 25.66C1181.27 24.66 1180.97 23.8533 1180.37 23.24C1179.77 22.6267 1179.01 22.32 1178.09 22.32C1177.17 22.32 1176.41 22.6267 1175.81 23.24C1175.22 23.8533 1174.93 24.66 1174.93 25.66C1174.93 26.66 1175.22 27.4667 1175.81 28.08C1176.41 28.6933 1177.17 29 1178.09 29ZM1188.56 21.88C1189.28 20.76 1190.55 20.2 1192.36 20.2V22.58C1192.15 22.54 1191.95 22.52 1191.78 22.52C1190.81 22.52 1190.05 22.8067 1189.5 23.38C1188.95 23.94 1188.68 24.7533 1188.68 25.82V31H1186.18V20.32H1188.56V21.88ZM1204.42 25.72C1204.42 25.8933 1204.41 26.14 1204.38 26.46H1196C1196.15 27.2467 1196.53 27.8733 1197.14 28.34C1197.77 28.7933 1198.54 29.02 1199.46 29.02C1200.64 29.02 1201.6 28.6333 1202.36 27.86L1203.7 29.4C1203.22 29.9733 1202.62 30.4067 1201.88 30.7C1201.15 30.9933 1200.32 31.14 1199.4 31.14C1198.23 31.14 1197.2 30.9067 1196.3 30.44C1195.41 29.9733 1194.72 29.3267 1194.22 28.5C1193.74 27.66 1193.5 26.7133 1193.5 25.66C1193.5 24.62 1193.74 23.6867 1194.2 22.86C1194.68 22.02 1195.34 21.3667 1196.18 20.9C1197.02 20.4333 1197.97 20.2 1199.02 20.2C1200.06 20.2 1200.99 20.4333 1201.8 20.9C1202.63 21.3533 1203.27 22 1203.72 22.84C1204.19 23.6667 1204.42 24.6267 1204.42 25.72ZM1199.02 22.2C1198.22 22.2 1197.54 22.44 1196.98 22.92C1196.44 23.3867 1196.1 24.0133 1195.98 24.8H1202.04C1201.94 24.0267 1201.61 23.4 1201.06 22.92C1200.52 22.44 1199.84 22.2 1199.02 22.2ZM1221.23 22.92V25.08L1212.01 28.66V26.58L1218.91 24L1212.01 21.42V19.34L1221.23 22.92Z" fill="black"/>
</svg>
